<?xml version="1.0" encoding="UTF-8" standalone="no"?>
<!-- Created with Inkscape (http://www.inkscape.org/) -->

<svg
   width="202.68988mm"
   height="251.82336mm"
   viewBox="0 0 202.68988 251.82337"
   version="1.1"
   id="svg3738"
   xml:space="preserve"
   inkscape:version="1.2.2 (732a01da63, 2022-12-09)"
   sodipodi:docname="quibdo.svg"
   xmlns:inkscape="http://www.inkscape.org/namespaces/inkscape"
   xmlns:sodipodi="http://sodipodi.sourceforge.net/DTD/sodipodi-0.dtd"
   xmlns="http://www.w3.org/2000/svg"
   xmlns:svg="http://www.w3.org/2000/svg"><sodipodi:namedview
     id="namedview3740"
     pagecolor="#ffffff"
     bordercolor="#000000"
     borderopacity="0.25"
     inkscape:showpageshadow="2"
     inkscape:pageopacity="0.0"
     inkscape:pagecheckerboard="0"
     inkscape:deskcolor="#d1d1d1"
     inkscape:document-units="mm"
     showgrid="false"
     inkscape:zoom="0.31723122"
     inkscape:cx="-365.66389"
     inkscape:cy="699.80503"
     inkscape:window-width="1440"
     inkscape:window-height="829"
     inkscape:window-x="-8"
     inkscape:window-y="-8"
     inkscape:window-maximized="1"
     inkscape:current-layer="layer1" /><defs
     id="defs3735" /><g
     inkscape:label="Capa 1"
     inkscape:groupmode="layer"
     id="layer1"
     transform="translate(-2.199173,-21.318004)"><g
       id="g11246"><path
         style="fill:none;stroke:#000000;stroke-width:0.264583px;stroke-linecap:butt;stroke-linejoin:miter;stroke-opacity:1"
         d="m 20.878809,158.64345 c 0,0 -0.943856,12.42744 -0.943856,15.49497 0,3.06753 -0.157311,4.48332 -0.629237,5.97775 -0.47193,1.49444 -0.393274,1.5731 -1.101167,4.79794 -0.70789,3.22484 -1.966365,12.27013 -2.123676,13.29264 -0.157308,1.02251 -0.70789,3.06753 -0.550582,4.326 0.157311,1.25848 1.494438,3.85408 1.494438,4.32601 0,0.47193 -0.393274,7.70816 -0.707892,9.75318 -0.314619,2.04502 -0.550582,4.71928 -0.550582,5.82044 0,1.10117 0.15731,2.75292 0.15731,4.64063 0,1.88771 -2.20233,14.47246 -1.022511,15.49497 1.179819,1.02251 2.359639,1.80905 2.438294,3.22484 0.07866,1.41578 -2.202331,3.14618 -1.573093,5.42717 0.629237,2.28098 0.471929,4.64062 2.831568,4.48331 2.359639,-0.1573 7.000262,0.0787 8.966632,1.0225 1.96637,0.94388 6.37103,1.96639 7.86547,1.17983 1.49443,-0.78655 4.24735,-1.41578 4.24735,-2.75291 0,-1.33713 -1.41579,-7.00026 -1.41579,-8.73067 0,-1.7304 0.8652,-4.16869 1.73041,-4.71928 0.8652,-0.55058 3.06753,-2.91022 8.65201,-2.20232 5.58448,0.70789 8.96663,6.29237 9.67452,8.65201 0.70789,2.35964 4.71928,1.33713 7.70816,2.12367 2.98887,0.78655 10.933,1.02251 12.58474,0.62924 1.65175,-0.39327 6.13507,-1.33713 6.13507,-1.33713 0,0 4.40466,0.8652 5.34851,1.49444 0.94386,0.62924 3.53946,2.43829 4.1687,2.91022 0.62924,0.47193 2.75291,1.65175 2.51695,3.3035 -0.23596,1.65174 -0.62924,4.56197 -1.02251,6.37104 -0.39327,1.80903 0.0787,5.89909 -0.39327,6.9216 -0.47193,1.02251 -1.10117,2.4383 -1.10117,2.4383 h 9.989145 c 0,0 4.24736,-4.48331 5.8991,-4.79796 1.65175,-0.31461 -1.17982,-4.16869 -1.17982,-4.16869 0,0 3.06753,-3.93272 3.38215,-5.74178 0.31462,-1.80906 2.98888,-0.39328 3.85408,-1.88772 0.8652,-1.49443 -0.70789,-3.14618 -0.70789,-3.14618 0,0 9.04529,-1.17982 14.47246,1.17982 5.42717,2.35964 2.75291,-2.20233 2.91022,-5.0339 0.15731,-2.83157 0,-8.4947 0.47193,-8.96663 0.47192,-0.47193 2.35964,-1.57309 2.98887,-3.4608 0.62924,-1.88772 0,-4.56198 0,-4.56198 h 11.7982 l 2.83157,-0.70789 v 9.43856 h 7.47219 v 3.85408 h 5.97776 l 0.62924,-15.41631 h 16.36016 v -24.14698 h -21.1581 l -12.50609,-1.5731 v -15.259 h -8.57336 l -6.7643,-4.79794 -2.67426,-0.8652 -2.67425,-3.77542 -3.14619,-1.80906 -1.80906,-3.85407 -10.2251,-2.98888 c 0,0 0.8652,-2.98888 -0.47193,-5.0339 -1.33713,-2.04502 -1.17982,-4.71928 -0.78655,-6.29237 0.39327,-1.5731 0.70789,-6.68565 0.62924,-7.55085 -0.0787,-0.8652 -2.98888,-4.1687 -0.15731,-4.48332 2.83157,-0.31461 7.07892,-1.7304 8.18008,-1.88771 1.10117,-0.15731 5.34852,-0.0787 5.34852,-0.0787 l 3.77542,2.20233 3.06754,-1.7304 6.60699,1.33712 c 0,0 1.10116,-1.10116 1.41578,-1.96636 0.31462,-0.8652 8.80932,-4.32601 10.14645,-4.32601 1.33713,0 3.46081,0 3.46081,0 h 1.49444 l 1.57309,2.28099 5.82044,2.91022 10.53973,-1.88771 2.04502,-5.58448 -2.35964,-4.71928 -6.05641,-3.14619 -3.14618,-0.47193 -2.91023,-1.25847 -1.96637,-8.96663 c 0,0 4.01139,-3.93274 0.78655,-3.93274 -3.22484,0 -12.03416,4.09004 -12.03416,4.09004 0,0 0.31462,4.1687 -1.33713,4.64063 -1.65175,0.47193 -3.14619,-1.17982 -4.56197,-1.65175 -1.41579,-0.47193 -1.80906,-1.41578 -3.53946,-0.47193 -1.7304,0.94386 -13.60726,1.80906 -13.60726,1.80906 l -4.24735,1.7304 -3.22484,-4.40466 -1.02251,-5.26986 c 0,0 -1.65175,-0.15731 -3.14619,0.39327 -1.49443,0.55059 -3.06753,-0.8652 -4.40466,0.23597 -1.33713,1.10116 -1.96636,2.28098 -2.98887,3.30349 -1.02251,1.02251 -2.35964,1.49444 -4.40466,1.65175 -2.045035,0.15731 -3.775435,0.70789 -3.775435,0.70789 0,0 0,2.4383 -0.47193,2.59561 -0.47193,0.15731 -4.16869,-0.62924 -4.56197,-0.55059 -0.39327,0.0787 -0.31462,1.41579 -0.31462,1.41579 l -2.28098,2.98888 c 0,0 -6.7643,0.8652 -7.70816,2.51695 -0.94385,1.65174 -2.51695,3.77542 -4.64062,3.53945 -2.12368,-0.23596 -2.51695,-1.41578 -2.51695,-1.41578 0,0 0.55058,-2.83157 -0.31462,-2.83157 -0.8652,0 -2.20233,-1.41578 -2.20233,-1.41578 0,0 -4.64063,-3.85408 -4.24735,-6.21372 0.39327,-2.35964 0.15731,-3.53946 0.39327,-5.34852 0.23597,-1.80905 2.43829,-3.30349 3.22484,-5.11255 0.78655,-1.80906 0.31462,-3.85408 1.96637,-6.13506 1.65175,-2.28099 0.39327,-4.40466 4.24735,-5.42717 3.85408,-1.02251 6.13506,-2.123684 6.13506,-2.123684 l 1.41579,-7.31488 5.0339,-6.449686 -0.94386,-3.460805 c 0,0 0.55058,-1.651746 6.13506,-0.865201 5.584485,0.786548 6.371035,0.07866 5.741795,-1.415783 -0.62923,-1.494438 0.47193,-7.393537 0.47193,-7.393537 l -1.573095,-3.539461 c 0,0 -2.28099,0.865201 -2.35964,-2.595605 -0.0787,-3.460803 0.23596,-5.820444 0.23596,-7.393538 0,-1.573093 0,-4.955243 0,-4.955243 l -2.67426,-3.696769 c 0,0 -2.20233,-0.70789 -1.80905,-2.910221 0.39327,-2.202331 3.30349,-4.955244 3.30349,-4.955244 l -4.326,-3.53946 -1.75128,3.854291 -0.11124,5.172403 -2.16907,2.113457 -6.4516,-1.390433 -7.17463,-4.226909 -0.27808,-4.226912 c 0,0 1.6129,1.946603 1.83537,1.890988 0.22246,-0.05562 1.72413,-3.559503 1.72413,-3.559503 h 2.44716 l 2.55839,-1.779755 v -5.394872 l -0.49982,-1.865368 -2.65765,-1.534396 h -3.5166 l -2.36404,-4.094636 -5.86731,-2.183 -3.05895,2.836479 -0.16685,6.284751 -0.94549,4.783082 3.94882,4.949933 -5.00555,13.626227 -12.29141,-1.83537 -1.2792,-2.725245 c 0,0 -5.83981,-1.668518 -9.28808,1.056727 -3.44827,2.725245 -6.95215,6.062279 -6.95215,6.062279 0,0 1.9466,3.392654 1.33481,8.509439 -0.61179,5.116788 0.11124,3.726355 -0.44494,7.007773 -0.55617,3.281418 -1.27919,9.121227 -1.27919,10.567275 0,1.446049 0.11123,1.05673 0,1.779754 -0.11124,0.723022 1.44605,3.003331 -1.16797,3.726355 -2.614,0.723024 -10.845356,1.6129 -10.845356,1.6129 L 18.8188,89.545905 12.3672,93.717196 c 0,0 -1.334815,5.61734 -0.667408,6.340374 0.667408,0.72302 -0.111234,1.22358 -0.111234,2.16907 0,0.94549 0.778642,4.67185 1.279197,5.28364 0.500555,0.61179 2.335924,1.77975 4.282527,1.50167 1.946603,-0.27809 5.617342,0.61178 7.508323,0.88987 1.89099,0.27809 5.89543,3.67074 5.83982,4.78308 -0.0556,1.11235 -1.72414,1.50167 -1.39043,2.00222 0.3337,0.50056 1.9466,4.89432 1.33481,5.89543 -0.61179,1.00111 -0.16685,2.22469 -2.8921,1.72413 -2.72524,-0.50055 -0.6674,1.33482 -0.72302,1.83537 -0.0556,0.50056 -1.00111,1.66852 -0.9455,2.16908 0.0556,0.50055 2.39155,4.61623 2.00222,6.00666 -0.38932,1.39043 -0.72302,7.11901 -1.72413,3.78197 -1.00111,-3.33703 0,-4.44938 -3.225799,-3.61512 -3.2258,0.83426 -3.114567,2.72525 -4.338145,3.78197 -1.223579,1.05673 -2.280307,3.00333 -2.391543,3.94883 -0.111233,0.94549 1.446049,7.28586 2.447161,9.12123 1.001109,1.83537 2.169072,4.33814 2.224688,5.22802 0.05562,0.88987 0.0021,2.07871 0.0021,2.07871 z"
         id="path3979" /><path
         id="path3979-2"
         style="fill:none;stroke:#000000;stroke-width:0.264583px;stroke-linecap:butt;stroke-linejoin:miter;stroke-opacity:1"
         d="m 50.583605,181.31883 -0.0124,-0.003 c 0,0 0.002,0.021 0.009,0.0155 6.1e-4,-4.8e-4 0.002,-0.0115 0.003,-0.0124 z" /><path
         id="path4012"
         style="fill:#b5d7b5;fill-opacity:0.980392;stroke:#000000;stroke-width:0.264583px;stroke-linecap:butt;stroke-linejoin:miter;stroke-opacity:1"
         d="m 39.103165,242.90371 0.0713,-4.47053 1.33481,-12.20804 c 0,0 0.29211,0.005 0.74052,0.007 0.44841,0.001 1.05327,-10e-4 1.67897,-0.0171 0.31284,-0.008 0.63108,-0.0186 0.93741,-0.0341 0.30633,-0.0155 0.60069,-0.0356 0.86661,-0.061 0.26592,-0.0254 0.50343,-0.0564 0.69505,-0.094 0.0958,-0.0188 0.18027,-0.0392 0.25115,-0.0615 0.0709,-0.0223 0.1283,-0.0463 0.17001,-0.0724 0.0209,-0.013 0.0377,-0.0299 0.0512,-0.0501 0.0135,-0.0203 0.0235,-0.0443 0.03,-0.0713 0.013,-0.0541 0.012,-0.12139 -5.1e-4,-0.19998 -0.0125,-0.0786 -0.0367,-0.16809 -0.0713,-0.26769 -0.0346,-0.0996 -0.0794,-0.20897 -0.13281,-0.32608 -0.10688,-0.2342 -0.24802,-0.50022 -0.41031,-0.78341 -0.16229,-0.28319 -0.34573,-0.58364 -0.53691,-0.8878 -0.38237,-0.60831 -0.7959,-1.2304 -1.13482,-1.75442 -0.16946,-0.26201 -0.32041,-0.49976 -0.43925,-0.69866 -0.11884,-0.1989 -0.20582,-0.35888 -0.24753,-0.46664 -0.0209,-0.0539 -0.034,-0.11156 -0.0398,-0.1726 -0.006,-0.061 -0.004,-0.12546 0.004,-0.19275 0.008,-0.0673 0.022,-0.13767 0.0419,-0.21032 0.0198,-0.0727 0.0451,-0.14767 0.0754,-0.2248 0.0606,-0.15425 0.14073,-0.31643 0.2341,-0.48317 0.0934,-0.16674 0.20035,-0.33798 0.31419,-0.51005 0.22768,-0.34413 0.48391,-0.692 0.71985,-1.01441 0.11797,-0.1612 0.23066,-0.31593 0.33228,-0.46095 0.10162,-0.14502 0.19211,-0.28038 0.2651,-0.40204 0.073,-0.12167 0.12382,-0.23391 0.15607,-0.34055 0.0322,-0.10664 0.0457,-0.20758 0.0444,-0.30696 -10e-4,-0.0994 -0.0173,-0.19675 -0.045,-0.29662 -0.0277,-0.0999 -0.0668,-0.20193 -0.11369,-0.31006 -0.0937,-0.21626 -0.21848,-0.45708 -0.34571,-0.75293 -0.0636,-0.14792 -0.12793,-0.30939 -0.18914,-0.48885 -0.0612,-0.17946 -0.11943,-0.37708 -0.17105,-0.59583 -0.0258,-0.10938 -0.0437,-0.21397 -0.0543,-0.31471 -0.0106,-0.10075 -0.0137,-0.19756 -0.0109,-0.28991 0.003,-0.0923 0.0114,-0.18039 0.0258,-0.26458 0.0144,-0.0842 0.0342,-0.16454 0.0584,-0.24081 0.0242,-0.0763 0.0531,-0.14845 0.0853,-0.21704 0.0322,-0.0686 0.0676,-0.13366 0.10593,-0.19483 0.0766,-0.12232 0.16392,-0.22999 0.25425,-0.32401 0.0903,-0.094 0.18385,-0.17421 0.27337,-0.24184 0.0895,-0.0676 0.17488,-0.12272 0.24908,-0.16588 0.1484,-0.0863 0.25166,-0.12558 0.25166,-0.12558 l -2.14302,-4.99452 -1.78955,-1.31724 v -1.47484 l -0.0475,-0.0894 -0.0114,0.0305 -4.34599,-0.53124 -1.43506,-1.43505 h -2.24172 v -1.88774 h -2.00608 l -0.74724,4.01112 -0.0393,3.93258 -2.16266,4.4049 -8.259963,-3.36414 0.541569,-2.02106 2.726964,-0.73071 0.60565,-2.26032 -8.567437,-2.29599 c -0.05177,0.4759 -0.07355,0.93245 -0.02584,1.31413 0.157311,1.25848 1.494483,3.85391 1.494483,4.32584 0,0.47193 -0.39335,7.70839 -0.707968,9.75341 -0.314615,2.04502 -0.55087,4.71919 -0.55087,5.82031 0,1.10117 0.157613,2.75284 0.157613,4.64055 0,1.88771 -2.202492,14.47267 -1.022677,15.49518 1.179815,1.02251 2.359439,1.80882 2.438094,3.22461 0.07866,1.41574 -2.202268,3.1461 -1.57303,5.42705 0.629233,2.28098 0.472241,4.64076 2.831868,4.48345 2.359627,-0.1573 7.000014,0.0789 8.966384,1.02268 1.96633,0.94388 6.37123,1.96633 7.86567,1.17977 1.49439,-0.78655 4.24728,-1.41567 4.24728,-2.7528 0,-1.33713 -1.41593,-7.00033 -1.41593,-8.73074 0,-1.1115 0.3581,-2.51249 0.84284,-3.52019 z" /><path
         id="path4022"
         style="fill:#b6d7b6;fill-opacity:0.980392;stroke:#000000;stroke-width:0.264583px;stroke-linecap:butt;stroke-linejoin:miter;stroke-opacity:1"
         d="m 112.6315,257.70332 c 0.77991,-0.85554 2.83607,-0.0132 3.57549,-1.29036 0.8652,-1.49443 -0.70745,-3.14606 -0.70745,-3.14606 0,0 9.04482,-1.17987 14.47199,1.17977 5.42712,2.35964 2.75309,-2.20223 2.91041,-5.0338 0.15731,-2.83157 -1.2e-4,-8.49497 0.47181,-8.9669 0.47193,-0.47188 2.35973,-1.57306 2.98896,-3.46077 0.62924,-1.88767 0,-4.56199 0,-4.56199 h 11.79825 l 2.83134,-0.70797 v 9.4387 h 7.47242 v 3.85403 h 5.97792 l 0.6289,-15.41611 h 16.36025 V 205.44501 H 160.2539 l -12.50621,-1.57355 v -0.047 l -5.09685,4.60333 -3.86384,-1.11311 -1.65675,0.4439 -1.67173,-0.44803 -5.50923,-3.18068 -3.74808,-3.7481 -1.65571,-0.95601 h -2.00556 l -1.49656,-0.87023 h -4.44934 l -3.17035,-2.78071 -5.06119,-2.6696 -1.94665,2.7807 -1.56011,4.13774 -2.32906,4.03437 -2.29805,-2.29856 -1.322395,-4.93562 -3.75274,-6.49934 h -9.87227 c 0,0 -0.031,-0.0767 -0.094,-0.19792 -0.063,-0.12123 -0.15786,-0.28711 -0.28474,-0.46613 -0.0634,-0.0895 -0.13489,-0.18234 -0.21446,-0.2744 -0.0796,-0.0921 -0.16722,-0.18358 -0.26303,-0.27027 -0.0958,-0.0867 -0.19997,-0.16846 -0.31212,-0.24184 -0.11216,-0.0734 -0.23209,-0.13803 -0.36071,-0.19017 -0.12861,-0.0521 -0.23567,-0.0855 -0.32556,-0.10335 -0.0899,-0.0178 -0.16263,-0.0203 -0.22324,-0.01 -0.0606,0.0104 -0.10907,0.0336 -0.14986,0.0661 -0.0408,0.0326 -0.074,0.0748 -0.10439,0.12351 -0.0608,0.0973 -0.11051,0.22058 -0.18655,0.34572 -0.038,0.0626 -0.0825,0.12563 -0.13849,0.18603 -0.056,0.0604 -0.12328,0.11839 -0.20671,0.17053 -0.0834,0.0521 -0.15673,0.0909 -0.22169,0.11886 -0.065,0.0279 -0.12184,0.0448 -0.17312,0.0522 -0.0513,0.007 -0.0966,0.005 -0.13901,-0.004 -0.0424,-0.009 -0.0816,-0.0265 -0.11988,-0.0491 -0.0765,-0.0452 -0.14959,-0.11302 -0.23823,-0.18862 -0.0886,-0.0756 -0.19272,-0.15866 -0.33177,-0.23513 -0.0695,-0.0382 -0.17063,-0.0831 -0.29662,-0.13074 -0.12598,-0.0477 -0.27686,-0.0985 -0.44597,-0.1478 -0.1691,-0.0493 -0.35665,-0.0973 -0.55552,-0.14056 -0.19887,-0.0433 -0.40896,-0.0816 -0.62425,-0.1111 -0.21529,-0.0295 -0.43535,-0.05 -0.65371,-0.0579 -0.21835,-0.008 -0.43529,-0.003 -0.64337,0.0181 -0.10404,0.0107 -0.20592,0.0255 -0.30489,0.045 -0.099,0.0195 -0.19509,0.0436 -0.28732,0.0729 -0.0922,0.0292 -0.18025,0.0639 -0.26407,0.10387 -0.0838,0.0399 -0.16345,0.0853 -0.23719,0.13694 -0.29496,0.20647 -0.59716,0.41023 -0.90072,0.6041 -0.30356,0.19387 -0.60809,0.37772 -0.90796,0.54364 -0.29987,0.16591 -0.59512,0.31407 -0.87901,0.43666 -0.14195,0.0613 -0.28087,0.11623 -0.41651,0.16382 -0.13565,0.0476 -0.26803,0.0879 -0.39585,0.11989 -0.12781,0.0319 -0.24927,0.0519 -0.36586,0.061 -0.1166,0.009 -0.22837,0.007 -0.3359,-0.006 -0.10754,-0.0129 -0.21099,-0.0369 -0.31161,-0.0708 -0.10062,-0.034 -0.19818,-0.0782 -0.29404,-0.13229 -0.0959,-0.0541 -0.18994,-0.11792 -0.28319,-0.1912 -0.0933,-0.0733 -0.18574,-0.15597 -0.27853,-0.24753 -0.18558,-0.18312 -0.37232,-0.40196 -0.56896,-0.65268 -0.0492,-0.0627 -0.10282,-0.12124 -0.1602,-0.17673 -0.0574,-0.0555 -0.11864,-0.10761 -0.18345,-0.15658 -0.12962,-0.0979 -0.27318,-0.18352 -0.42788,-0.25941 -0.1547,-0.0759 -0.32047,-0.14232 -0.49403,-0.20154 -0.17355,-0.0592 -0.35486,-0.11124 -0.54105,-0.15917 -0.37238,-0.0959 -0.76369,-0.17439 -1.14928,-0.25734 -0.1928,-0.0415 -0.38426,-0.0839 -0.57103,-0.13023 -0.18676,-0.0463 -0.36912,-0.0964 -0.54363,-0.15296 -0.17451,-0.0565 -0.32732,-0.12678 -0.46147,-0.20567 -0.13415,-0.0789 -0.24973,-0.16658 -0.34882,-0.25942 -0.0991,-0.0928 -0.18182,-0.19049 -0.25115,-0.28887 -0.0693,-0.0984 -0.12515,-0.19748 -0.17001,-0.29301 -0.0449,-0.0955 -0.0787,-0.18756 -0.10439,-0.27181 -0.0257,-0.0842 -0.0429,-0.16074 -0.0548,-0.22531 -0.0237,-0.12915 -0.0253,-0.21084 -0.0253,-0.21084 h -3.46749 l -0.93689,-1.62264 h -4.63589 l -1.9513,1.9513 h -1.90738 v -0.0372 l -3.55947,-0.4439 -0.66818,3.97185 1.45469,2.16318 -5.52524,3.69641 h 2.33991 l -0.94362,7.98349 5.19917,4.91288 h 5.67304 l 3.78168,-1.00097 7.17476,0.55604 10.57713,5.08858 3.26388,-2.00556 4.36563,2.04483 1.65158,2.63498 5.78104,0.0791 1.57303,-0.62942 h 6.769615 v 4.1336 l -5.117525,8.86354 c 0,0 0.2542,0.13769 0.65836,0.34778 0.40417,0.2101 0.95866,0.49299 1.56011,0.78238 0.30073,0.1447 0.61323,0.29098 0.9245,0.43098 0.31126,0.14 0.621315,0.27328 0.917255,0.39223 0.29594,0.11895 0.57776,0.22333 0.83251,0.30489 0.12738,0.0408 0.24795,0.076 0.36018,0.10438 0.11224,0.0284 0.21621,0.0502 0.31006,0.0641 0.18771,0.0278 0.37799,0.0713 0.56896,0.12764 0.19097,0.0564 0.38226,0.12564 0.57257,0.20516 0.19032,0.0795 0.37959,0.16891 0.56535,0.26613 0.18575,0.0972 0.3679,0.20212 0.54518,0.31161 0.17728,0.1095 0.34929,0.22369 0.51418,0.34003 0.1649,0.11634 0.32269,0.23468 0.47129,0.35244 0.1486,0.11775 0.28812,0.23508 0.41651,0.34881 0.1284,0.11374 0.24609,0.22387 0.35037,0.32815 0.0521,0.0521 0.10295,0.10941 0.15296,0.17105 0.05,0.0616 0.0988,0.1278 0.14676,0.19792 0.0959,0.14024 0.18827,0.29641 0.27647,0.46457 0.0882,0.16815 0.17259,0.34837 0.25373,0.5364 0.0812,0.18803 0.15884,0.38407 0.23358,0.58394 0.14947,0.39975 0.2867,0.815 0.41445,1.21388 0.12774,0.39888 0.24584,0.78148 0.35708,1.11518 0.0556,0.16685 0.12171,0.3379 0.19482,0.5116 0.0731,0.17369 0.15333,0.34974 0.23719,0.52658 0.16772,0.35369 0.35006,0.71007 0.52039,1.0542 0.0852,0.17207 0.16768,0.34126 0.24339,0.50539 0.0757,0.16414 0.1446,0.32343 0.20412,0.47594 0.0595,0.15252 0.10964,0.29792 0.14625,0.43512 0.0366,0.1372 0.0597,0.26577 0.0667,0.38396 0.007,0.11818 0.002,0.23743 -0.0119,0.35811 -0.0136,0.12069 -0.0355,0.24324 -0.062,0.36794 -0.053,0.24941 -0.12384,0.50829 -0.18293,0.7829 -0.0296,0.1373 -0.0563,0.27838 -0.076,0.42426 -0.0197,0.14589 -0.0325,0.2967 -0.0346,0.45269 -0.002,0.15599 0.007,0.31711 0.0295,0.48472 0.0115,0.0838 0.0263,0.16932 0.0455,0.25632 0.0192,0.087 0.0425,0.17575 0.0703,0.26613 0.0556,0.18076 0.10923,0.39452 0.16072,0.63252 0.0515,0.238 0.1007,0.50008 0.14676,0.77773 0.0461,0.27765 0.0893,0.57053 0.12867,0.87023 0.0393,0.2997 0.0746,0.60638 0.10594,0.91054 0.0313,0.30416 0.0581,0.60609 0.0801,0.8971 0.0219,0.29102 0.0388,0.57069 0.0501,0.83096 0.0113,0.26027 0.0172,0.5012 0.0165,0.71314 -6.5e-4,0.21193 -0.008,0.39505 -0.0217,0.54105 -0.0139,0.14599 -0.0183,0.29385 -0.0139,0.44235 0.004,0.14849 0.0174,0.29745 0.0382,0.44648 0.0209,0.14904 0.0496,0.29783 0.0853,0.44545 0.0356,0.14763 0.0785,0.29448 0.12712,0.43874 0.0487,0.14425 0.10334,0.28636 0.1633,0.42529 0.06,0.13894 0.1253,0.27452 0.19482,0.40618 0.0695,0.13166 0.14332,0.25895 0.22066,0.38137 0.0773,0.12243 0.1579,0.24017 0.24133,0.3514 0.0834,0.11124 0.20762,0.31373 0.36122,0.58291 0.1536,0.26918 0.33669,0.60486 0.53743,0.98289 0.26266,0.4946 0.56979,1.10227 0.86765,1.6862 z" /><path
         id="path4074"
         style="fill:#f9b8c4;fill-opacity:0.980392;stroke:#000000;stroke-width:0.264583px;stroke-linecap:butt;stroke-linejoin:miter;stroke-opacity:1"
         d="m 112.6315,257.70332 c -0.29786,-0.58393 -0.60499,-1.1916 -0.86765,-1.6862 -0.20074,-0.37803 -0.38383,-0.71371 -0.53743,-0.98289 -0.1536,-0.26918 -0.2778,-0.47167 -0.36122,-0.58291 -0.0834,-0.11123 -0.16399,-0.22897 -0.24133,-0.3514 -0.0773,-0.12242 -0.15114,-0.24971 -0.22066,-0.38137 -0.0695,-0.13166 -0.13487,-0.26724 -0.19482,-0.40618 -0.06,-0.13893 -0.11463,-0.28104 -0.1633,-0.42529 -0.0487,-0.14426 -0.0915,-0.29111 -0.12712,-0.43874 -0.0356,-0.14762 -0.0644,-0.29641 -0.0853,-0.44545 -0.0208,-0.14903 -0.0339,-0.29799 -0.0382,-0.44648 -0.004,-0.1485 5e-5,-0.29636 0.0139,-0.44235 0.0139,-0.146 0.0211,-0.32912 0.0217,-0.54105 6.5e-4,-0.21194 -0.005,-0.45287 -0.0165,-0.71314 -0.0113,-0.26027 -0.0282,-0.53994 -0.0501,-0.83096 -0.022,-0.29101 -0.0488,-0.59294 -0.0801,-0.8971 -0.0313,-0.30416 -0.0666,-0.61084 -0.10594,-0.91054 -0.0393,-0.2997 -0.0826,-0.59258 -0.12867,-0.87023 -0.0461,-0.27765 -0.0953,-0.53973 -0.14676,-0.77773 -0.0515,-0.238 -0.1051,-0.45176 -0.16072,-0.63252 -0.0278,-0.0904 -0.0511,-0.17914 -0.0703,-0.26613 -0.0192,-0.087 -0.034,-0.17251 -0.0455,-0.25632 -0.0229,-0.16761 -0.0316,-0.32873 -0.0295,-0.48472 0.002,-0.15599 0.015,-0.3068 0.0346,-0.45269 0.0197,-0.14588 0.0464,-0.28696 0.076,-0.42426 0.0591,-0.27461 0.12992,-0.53349 0.18293,-0.7829 0.0265,-0.1247 0.0484,-0.24725 0.062,-0.36794 0.0136,-0.12068 0.0188,-0.23993 0.0119,-0.35811 -0.007,-0.11819 -0.03,-0.24676 -0.0667,-0.38396 -0.0366,-0.1372 -0.0867,-0.2826 -0.14625,-0.43512 -0.0595,-0.15251 -0.1284,-0.3118 -0.20412,-0.47594 -0.0757,-0.16413 -0.15823,-0.33332 -0.24339,-0.50539 -0.17033,-0.34413 -0.35267,-0.70051 -0.52039,-1.0542 -0.0839,-0.17684 -0.16408,-0.35289 -0.23719,-0.52658 -0.0731,-0.1737 -0.1392,-0.34475 -0.19482,-0.5116 -0.11124,-0.3337 -0.22934,-0.7163 -0.35708,-1.11518 -0.12775,-0.39888 -0.26498,-0.81413 -0.41445,-1.21388 -0.0747,-0.19987 -0.15243,-0.39591 -0.23358,-0.58394 -0.0811,-0.18803 -0.16552,-0.36825 -0.25373,-0.5364 -0.0882,-0.16816 -0.18055,-0.32433 -0.27647,-0.46457 -0.048,-0.0701 -0.0967,-0.13629 -0.14676,-0.19792 -0.05,-0.0616 -0.10082,-0.11891 -0.15296,-0.17105 -0.10428,-0.10428 -0.22197,-0.21441 -0.35037,-0.32815 -0.12839,-0.11373 -0.26791,-0.23106 -0.41651,-0.34881 -0.1486,-0.11776 -0.30639,-0.2361 -0.47129,-0.35244 -0.16489,-0.11634 -0.3369,-0.23053 -0.51418,-0.34003 -0.17728,-0.10949 -0.35943,-0.21438 -0.54518,-0.31161 -0.18576,-0.0972 -0.37503,-0.18661 -0.56535,-0.26613 -0.19031,-0.0795 -0.3816,-0.14878 -0.57257,-0.20516 -0.19097,-0.0564 -0.38125,-0.0998 -0.56896,-0.12764 -0.0939,-0.0139 -0.19782,-0.0357 -0.31006,-0.0641 -0.11223,-0.0284 -0.2328,-0.0636 -0.36018,-0.10438 -0.25475,-0.0816 -0.53657,-0.18594 -0.83251,-0.30489 -0.29594,-0.11895 -0.605995,-0.25223 -0.917255,-0.39223 -0.31127,-0.14 -0.62377,-0.28628 -0.9245,-0.43098 -0.60145,-0.28939 -1.15594,-0.57228 -1.56011,-0.78238 -0.40416,-0.21009 -0.65836,-0.34778 -0.65836,-0.34778 l 5.117525,-8.86354 v -4.1336 h -6.769615 l -1.57303,0.62942 -5.78104,-0.0791 -1.65158,-2.63498 -4.36563,-2.04483 -3.26388,2.00556 -10.57713,-5.08858 -7.17476,-0.55604 -3.78168,1.00097 h -5.67304 l -5.19917,-4.91288 0.94362,-7.98349 h -2.33991 l -0.0589,0.0393 -2.70216,7.3241 0.0475,0.0894 v 1.47484 l 1.78955,1.31724 2.14302,4.99452 c 0,0 -0.10326,0.0392 -0.25166,0.12558 -0.0742,0.0432 -0.15956,0.0983 -0.24908,0.16588 -0.0895,0.0676 -0.18304,0.14783 -0.27337,0.24184 -0.0903,0.094 -0.17763,0.20169 -0.25425,0.32401 -0.0383,0.0612 -0.0738,0.12623 -0.10593,0.19483 -0.0322,0.0686 -0.0611,0.14076 -0.0853,0.21704 -0.0242,0.0763 -0.044,0.15662 -0.0584,0.24081 -0.0144,0.0842 -0.023,0.17224 -0.0258,0.26458 -0.003,0.0924 2.6e-4,0.18916 0.0109,0.28991 0.0106,0.10074 0.0284,0.20533 0.0543,0.31471 0.0516,0.21875 0.10984,0.41637 0.17105,0.59583 0.0612,0.17945 0.12552,0.34093 0.18914,0.48885 0.12723,0.29585 0.25202,0.53667 0.34571,0.75293 0.0468,0.10813 0.086,0.21019 0.11369,0.31006 0.0277,0.0999 0.0436,0.19725 0.045,0.29662 10e-4,0.0994 -0.0122,0.20032 -0.0444,0.30696 -0.0323,0.10664 -0.0831,0.21888 -0.15607,0.34055 -0.073,0.12166 -0.16348,0.25702 -0.2651,0.40204 -0.10162,0.14502 -0.21431,0.29975 -0.33228,0.46095 -0.23594,0.32241 -0.49217,0.67028 -0.71985,1.01441 -0.11384,0.17207 -0.22083,0.34331 -0.31419,0.51005 -0.0934,0.16674 -0.17348,0.32892 -0.2341,0.48317 -0.0303,0.0771 -0.0556,0.15214 -0.0754,0.2248 -0.0198,0.0726 -0.0341,0.14302 -0.0419,0.21032 -0.008,0.0673 -0.009,0.13172 -0.004,0.19275 0.006,0.061 0.0189,0.11872 0.0398,0.1726 0.0417,0.10776 0.12869,0.26774 0.24753,0.46664 0.11884,0.1989 0.26979,0.43665 0.43925,0.69866 0.33892,0.52402 0.75245,1.14611 1.13482,1.75442 0.19118,0.30416 0.37462,0.60461 0.53691,0.8878 0.16229,0.28319 0.30343,0.54921 0.41031,0.78341 0.0534,0.11711 0.0982,0.22649 0.13281,0.32608 0.0346,0.0996 0.0588,0.1891 0.0713,0.26769 0.0125,0.0786 0.0135,0.1459 5.1e-4,0.19998 -0.006,0.0271 -0.0165,0.0511 -0.03,0.0713 -0.0135,0.0203 -0.0303,0.0371 -0.0512,0.0501 -0.0417,0.0261 -0.0991,0.05 -0.17001,0.0724 -0.0709,0.0223 -0.15534,0.0427 -0.25115,0.0615 -0.19162,0.0376 -0.42913,0.0686 -0.69505,0.094 -0.26592,0.0254 -0.56028,0.0455 -0.86661,0.061 -0.30633,0.0155 -0.62457,0.0263 -0.93741,0.0341 -0.6257,0.0156 -1.23056,0.0184 -1.67897,0.0171 -0.44841,-0.001 -0.74052,-0.007 -0.74052,-0.007 l -1.33481,12.20804 -0.0713,4.47053 c 0.2699,-0.56107 0.57836,-1.00198 0.8878,-1.1989 0.8652,-0.55058 3.06724,-2.91035 8.65167,-2.20245 5.58443,0.70789 8.96697,6.29203 9.67486,8.65167 0.70789,2.35964 4.71918,1.33736 7.70806,2.1239 2.98882,0.78655 10.93302,1.02269 12.58476,0.62942 1.65175,-0.39327 6.13503,-1.33738 6.13503,-1.33738 0,0 4.40466,0.86524 5.34851,1.49448 0.94386,0.62924 3.53949,2.43853 4.16873,2.91041 0.62924,0.47193 2.75312,1.65141 2.51716,3.30316 -0.23596,1.65174 -0.6294,4.56212 -1.02267,6.37119 -0.39327,1.80903 0.0787,5.89903 -0.39326,6.92154 -0.47193,1.02251 -1.10123,2.43861 -1.10123,2.43861 h 9.989065 c 0,0 4.24763,-4.48355 5.89938,-4.79815 1.65175,-0.31461 -1.18029,-4.16874 -1.18029,-4.16874 0,0 3.0676,-3.93271 3.38222,-5.74177 0.0457,-0.263 0.14587,-0.45184 0.27854,-0.59738 z" /><path
         id="path4017"
         style="fill:#ffffcc;fill-opacity:0.980392;stroke:#000000;stroke-width:0.264583px;stroke-linecap:butt;stroke-linejoin:miter;stroke-opacity:1"
         d="m 15.555248,201.22046 8.567437,2.29599 -0.60565,2.26032 -2.726964,0.73071 -0.541569,2.02106 8.259963,3.36414 2.16266,-4.4049 0.0393,-3.93258 0.74724,-4.01112 h 2.00608 v 1.88774 h 2.24172 l 1.43506,1.43505 4.34599,0.53124 2.71353,-7.35459 5.58415,-3.73569 -1.45469,-2.16318 0.66818,-3.97185 3.55947,0.4439 v -4.8488 l -1.97352,-0.44907 c -6.8e-4,9.1e-4 -0.002,0.0119 -0.003,0.0124 -0.007,0.006 -0.009,-0.0155 -0.009,-0.0155 l 0.0124,0.003 c 0.007,-0.01 0.0173,-0.0342 0.0341,-0.13074 0.0184,-0.10569 0.0434,-0.28552 0.0775,-0.58601 0.0341,-0.30048 0.0772,-0.72164 0.13126,-1.31155 0.0135,-0.14747 0.0208,-0.29982 0.0227,-0.45578 0.002,-0.15597 -10e-4,-0.31591 -0.009,-0.47801 -0.0164,-0.32419 -0.0519,-0.65817 -0.10025,-0.9927 -0.0484,-0.33454 -0.10988,-0.66929 -0.1788,-0.99529 -0.0689,-0.326 -0.14522,-0.64297 -0.22324,-0.94155 -0.15605,-0.59714 -0.31908,-1.12089 -0.44287,-1.49499 -0.12379,-0.37412 -0.20826,-0.59893 -0.20826,-0.59893 l -2.28048,-0.33383 1.10019,-4.26848 -5.38778,-1.10122 c 0,0 -0.8257,-2.98914 -0.8847,-3.24477 -0.007,-0.0319 -0.0477,-0.0876 -0.11266,-0.16071 -0.065,-0.0731 -0.15509,-0.1637 -0.26096,-0.2651 -0.21176,-0.2028 -0.4883,-0.44885 -0.76326,-0.6873 -0.54993,-0.47689 -1.09244,-0.9219 -1.09244,-0.9219 l 1.25832,-4.69636 -0.56276,-0.15089 -0.0207,-0.0388 -8.08116,-2.47789 -0.45217,1.57304 -2.08411,-0.57 0.37362,-1.82882 -5.05344,-0.98341 -0.90485,6.01721 -3.594613,-0.71882 c -0.0013,0.0319 -0.0047,0.17001 -0.0047,0.17001 0,0 -0.944129,12.42765 -0.944129,15.49518 0,3.06753 -0.156976,4.48301 -0.628902,5.97741 -0.471927,1.49444 -0.393334,1.57332 -1.101224,4.79816 -0.70789,3.22484 -1.966591,12.27022 -2.123902,13.29273 -0.109597,0.71239 -0.405588,1.9185 -0.524516,3.0117 z" /><path
         id="path4010"
         style="fill:#ffd7b0;fill-opacity:0.980392;stroke:#000000;stroke-width:0.264583px;stroke-linecap:butt;stroke-linejoin:miter;stroke-opacity:1"
         d="m 40.679295,157.46396 0.0207,0.0388 0.56276,0.15089 -1.25832,4.69636 c 0,0 0.54251,0.44501 1.09244,0.9219 0.27496,0.23845 0.5515,0.4845 0.76326,0.6873 0.10587,0.1014 0.19598,0.19197 0.26096,0.2651 0.065,0.0731 0.10528,0.12876 0.11266,0.16071 0.059,0.25563 0.8847,3.24477 0.8847,3.24477 l 5.38778,1.10122 -1.10019,4.26848 2.28048,0.33383 c 0,0 0.0845,0.22481 0.20826,0.59893 0.12379,0.37411 0.28682,0.89785 0.44287,1.49499 0.078,0.29858 0.15432,0.61555 0.22324,0.94155 0.0689,0.326 0.13042,0.66075 0.1788,0.99529 0.0484,0.33453 0.0839,0.66851 0.10025,0.9927 0.008,0.1621 0.0113,0.32204 0.009,0.47801 -0.002,0.15596 -0.009,0.30831 -0.0227,0.45578 -0.0541,0.58991 -0.0972,1.01107 -0.13126,1.31155 -0.0341,0.30049 -0.0591,0.48032 -0.0775,0.58601 -0.0168,0.0966 -0.0269,0.1212 -0.0341,0.13074 l 1.97352,0.44907 v 4.88601 h 1.90738 l 1.9513,-1.9513 h 4.63589 l 0.93689,1.62264 h 3.46749 c 0,0 0.002,0.0817 0.0253,0.21084 0.0118,0.0646 0.0291,0.14106 0.0548,0.22531 0.0257,0.0842 0.0595,0.17629 0.10439,0.27181 0.0449,0.0955 0.10069,0.19463 0.17001,0.29301 0.0693,0.0984 0.15207,0.19603 0.25115,0.28887 0.0991,0.0928 0.21467,0.18053 0.34882,0.25942 0.13415,0.0789 0.28696,0.14914 0.46147,0.20567 0.17451,0.0565 0.35687,0.10664 0.54363,0.15296 0.18677,0.0463 0.37823,0.0888 0.57103,0.13023 0.38559,0.083 0.7769,0.16148 1.14928,0.25734 0.18619,0.0479 0.3675,0.1 0.54105,0.15917 0.17356,0.0592 0.33933,0.12565 0.49403,0.20154 0.1547,0.0759 0.29826,0.16148 0.42788,0.25941 0.0648,0.049 0.12608,0.10109 0.18345,0.15658 0.0574,0.0555 0.11104,0.11406 0.1602,0.17673 0.19664,0.25072 0.38338,0.46956 0.56896,0.65268 0.0928,0.0916 0.18528,0.17425 0.27853,0.24753 0.0932,0.0733 0.18733,0.13713 0.28319,0.1912 0.0959,0.0541 0.19342,0.0983 0.29404,0.13229 0.10062,0.034 0.20407,0.0579 0.31161,0.0708 0.10753,0.0129 0.2193,0.0147 0.3359,0.006 0.11659,-0.009 0.23805,-0.029 0.36586,-0.061 0.12782,-0.032 0.2602,-0.0723 0.39585,-0.11989 0.13564,-0.0476 0.27456,-0.10252 0.41651,-0.16382 0.28389,-0.12259 0.57914,-0.27075 0.87901,-0.43666 0.29987,-0.16592 0.6044,-0.34977 0.90796,-0.54364 0.30356,-0.19387 0.60576,-0.39763 0.90072,-0.6041 0.0737,-0.0516 0.15338,-0.097 0.23719,-0.13694 0.0838,-0.0399 0.17184,-0.0746 0.26407,-0.10387 0.0922,-0.0292 0.18835,-0.0534 0.28732,-0.0729 0.099,-0.0195 0.20085,-0.0343 0.30489,-0.045 0.20808,-0.0214 0.42502,-0.026 0.64337,-0.0181 0.21836,0.008 0.43842,0.0284 0.65371,0.0579 0.21529,0.0294 0.42538,0.0678 0.62425,0.1111 0.19887,0.0433 0.38642,0.0912 0.55552,0.14056 0.16911,0.0493 0.31999,0.10014 0.44597,0.1478 0.12599,0.0477 0.2271,0.0925 0.29662,0.13074 0.13905,0.0765 0.24313,0.15952 0.33177,0.23513 0.0886,0.0756 0.16175,0.14343 0.23823,0.18862 0.0382,0.0226 0.0775,0.0396 0.11988,0.0491 0.0424,0.009 0.0877,0.0115 0.13901,0.004 0.0513,-0.007 0.10816,-0.0243 0.17312,-0.0522 0.065,-0.0279 0.13827,-0.0667 0.22169,-0.11886 0.0834,-0.0521 0.15071,-0.11013 0.20671,-0.17053 0.056,-0.0604 0.10047,-0.12346 0.13849,-0.18603 0.076,-0.12514 0.12572,-0.24839 0.18655,-0.34572 0.0304,-0.0487 0.0636,-0.0909 0.10439,-0.12351 0.0408,-0.0326 0.0892,-0.0557 0.14986,-0.0661 0.0606,-0.0104 0.13335,-0.008 0.22324,0.01 0.0899,0.0178 0.19695,0.0512 0.32556,0.10335 0.12862,0.0521 0.24855,0.11679 0.36071,0.19017 0.11215,0.0734 0.21631,0.15516 0.31212,0.24184 0.0958,0.0867 0.18347,0.17821 0.26303,0.27027 0.0796,0.0921 0.15102,0.1849 0.21446,0.2744 0.12688,0.17902 0.22174,0.3449 0.28474,0.46613 0.063,0.12122 0.094,0.19792 0.094,0.19792 h 9.87227 l 3.75274,6.49934 1.322395,4.93562 2.29805,2.29856 2.32906,-4.03437 1.56011,-4.13774 1.94665,-2.7807 5.06119,2.6696 3.17035,2.78071 h 4.44934 l 1.49655,0.87023 h 2.00556 l 1.65571,0.95601 3.74809,3.7481 5.50923,3.18068 1.67173,0.44803 1.65675,-0.4439 3.86384,1.11311 5.09685,-4.60333 V 188.6128 h -8.57312 l -6.76444,-4.79764 -2.67426,-0.86507 -2.67425,-3.77548 -3.14607,-1.80919 -1.80919,-3.85403 -10.22521,-2.98896 c 0,0 0.86532,-2.9888 -0.47181,-5.0338 -1.33713,-2.04502 -1.17978,-4.71955 -0.78651,-6.29264 0.39327,-1.5731 0.70755,-6.68525 0.6289,-7.55045 -0.0787,-0.8652 -2.98867,-4.16882 -0.1571,-4.48344 2.83157,-0.31461 7.0787,-1.73043 8.17986,-1.88774 1.10117,-0.15731 5.34851,-0.0785 5.34851,-0.0785 l 3.77548,2.20193 3.06752,-1.73013 6.60735,1.33687 c 0,0 1.10079,-1.10109 1.41541,-1.96629 0.31462,-0.86518 8.80954,-4.32583 10.14667,-4.32583 h 3.46077 1.49448 l 1.57304,2.281 5.82031,2.9099 10.53993,-1.88722 2.04483,-5.58468 -2.35954,-4.71909 -6.05648,-3.14658 -3.14606,-0.4718 -2.91042,-1.25832 -1.96629,-8.9669 c 0,0 4.01136,-3.93257 0.78652,-3.93257 -3.22484,0 -12.03389,4.09018 -12.03389,4.09018 0,0 0.31436,4.16862 -1.33739,4.64055 -1.65175,0.47193 -3.14623,-1.18017 -4.56199,-1.6521 -1.41579,-0.47193 -1.80892,-1.41565 -3.53932,-0.4718 -1.7304,0.94386 -13.60744,1.80919 -13.60744,1.80919 l -4.24729,1.73064 -3.22461,-4.4049 -1.02267,-5.26996 c 0,0 -1.65164,-0.15732 -3.14606,0.39326 -1.49443,0.55059 -3.06777,-0.86501 -4.4049,0.23616 -1.33713,1.10116 -1.96594,2.28065 -2.98845,3.30316 -1.02251,1.02251 -2.35988,1.49478 -4.4049,1.65209 -2.045025,0.15731 -3.775475,0.70797 -3.775475,0.70797 0,0 1.2e-4,2.43788 -0.47181,2.59519 -0.47193,0.15731 -4.16871,-0.629 -4.56199,-0.55035 -0.39327,0.0787 -0.31471,1.41593 -0.31471,1.41593 l -2.281,2.98897 c 0,0 -6.7642,0.86489 -7.70806,2.51664 -0.94383,1.65174 -2.51687,3.77529 -4.64054,3.53932 -0.44401,-0.0493 -0.79731,-0.14491 -1.10226,-0.25735 -0.0747,0.0141 -0.13682,0.0351 -0.216,0.047 -0.25897,0.0391 -0.54224,0.0678 -0.85215,0.0904 -0.30991,0.0226 -0.6464,0.0394 -1.01182,0.0553 -0.73085,0.0317 -1.57722,0.0594 -2.55747,0.12196 -0.24506,0.0156 -0.48303,0.0424 -0.71417,0.0785 -0.23114,0.0362 -0.45522,0.0817 -0.67283,0.13642 -0.2176,0.0547 -0.42856,0.11829 -0.63303,0.18965 -0.20447,0.0714 -0.40255,0.15065 -0.59428,0.23668 -0.19173,0.086 -0.37718,0.17928 -0.55656,0.27802 -0.17937,0.0987 -0.35296,0.20315 -0.52038,0.31264 -0.16742,0.1095 -0.32886,0.22381 -0.48472,0.3421 -0.15586,0.1183 -0.30593,0.24073 -0.45062,0.36587 -0.28938,0.25028 -0.55701,0.51233 -0.80409,0.77825 -0.24707,0.26592 -0.4737,0.53558 -0.68161,0.8015 -0.20791,0.26592 -0.39705,0.52797 -0.56896,0.77825 -0.1719,0.25027 -0.32656,0.48897 -0.4656,0.70796 -0.13904,0.219 -0.25519,0.41903 -0.35398,0.60255 -0.0988,0.18353 -0.17995,0.35044 -0.25012,0.5023 -0.14034,0.30372 -0.23514,0.54788 -0.33073,0.74775 -0.0478,0.0999 -0.0958,0.18853 -0.14986,0.2682 -0.054,0.0797 -0.11412,0.15021 -0.18603,0.21343 -0.0719,0.0632 -0.15595,0.11945 -0.25735,0.17001 -0.10141,0.0506 -0.22025,0.0958 -0.36277,0.13746 -0.28504,0.0834 -0.48162,0.15828 -0.63717,0.23823 -0.15556,0.0799 -0.27005,0.16495 -0.39171,0.26924 -0.12166,0.10428 -0.2502,0.22753 -0.43356,0.38395 -0.18337,0.15642 -0.42158,0.34602 -0.76223,0.58239 -0.17033,0.11819 -0.31774,0.20825 -0.447,0.27544 -0.12927,0.0672 -0.24028,0.11152 -0.33848,0.13694 -0.0982,0.0254 -0.18384,0.0319 -0.26097,0.0248 -0.0771,-0.007 -0.14583,-0.028 -0.21187,-0.0584 -0.13209,-0.0608 -0.25225,-0.15923 -0.39998,-0.25786 -0.0739,-0.0493 -0.15476,-0.0987 -0.24753,-0.14366 -0.0928,-0.0449 -0.19718,-0.085 -0.31884,-0.11627 -0.12166,-0.0313 -0.23319,-0.0733 -0.3359,-0.12299 -0.10271,-0.0497 -0.19667,-0.10732 -0.28422,-0.17054 -0.17511,-0.12644 -0.32365,-0.27512 -0.46095,-0.42633 -0.13731,-0.15121 -0.26334,-0.30496 -0.39326,-0.44183 -0.065,-0.0684 -0.13117,-0.13265 -0.19999,-0.19017 -0.0688,-0.0575 -0.14057,-0.10815 -0.21704,-0.14986 -0.0382,-0.0209 -0.0812,-0.0351 -0.12867,-0.0429 -0.0475,-0.008 -0.099,-0.009 -0.15452,-0.005 -0.11107,0.008 -0.23748,0.0385 -0.37413,0.0863 -0.13666,0.0478 -0.28345,0.11312 -0.43667,0.19068 -0.15322,0.0776 -0.31259,0.16726 -0.47336,0.26459 -0.32153,0.19466 -0.64907,0.41874 -0.94671,0.63252 -0.29764,0.21378 -0.56526,0.41704 -0.76688,0.56999 -0.1008,0.0765 -0.19495,0.12564 -0.2837,0.15193 -0.0887,0.0263 -0.17231,0.0298 -0.2527,0.015 -0.0804,-0.0148 -0.15734,-0.0478 -0.23306,-0.0946 -0.0757,-0.0467 -0.15006,-0.1067 -0.22479,-0.17622 -0.14947,-0.13904 -0.30099,-0.31487 -0.46871,-0.49041 -0.0839,-0.0878 -0.17165,-0.17569 -0.26561,-0.2589 -0.094,-0.0832 -0.19404,-0.16147 -0.30179,-0.23099 -0.10776,-0.0695 -0.20571,-0.12584 -0.29766,-0.17054 -0.0919,-0.0447 -0.17767,-0.0777 -0.26045,-0.1018 -0.0828,-0.0241 -0.16266,-0.0393 -0.24288,-0.047 -0.0802,-0.008 -0.16117,-0.008 -0.24546,-0.004 -0.16859,0.009 -0.35155,0.0375 -0.57619,0.0693 -0.22464,0.0317 -0.49054,0.0665 -0.82424,0.0873 -0.16685,0.0104 -0.3359,0.008 -0.50385,-0.005 -0.16795,-0.0127 -0.33486,-0.0355 -0.49764,-0.0651 -0.32556,-0.0593 -0.63453,-0.14619 -0.90176,-0.23564 -0.26722,-0.0895 -0.49293,-0.18145 -0.65164,-0.25115 -0.1587,-0.0697 -0.25063,-0.11679 -0.25063,-0.11679 l -4.02662,15.02751 z" /><path
         id="path4005"
         style="fill:#f9b8c4;fill-opacity:0.980392;stroke:#000000;stroke-width:0.264583px;stroke-linecap:butt;stroke-linejoin:miter;stroke-opacity:1"
         d="m 20.882572,158.47527 3.594613,0.71882 0.90485,-6.01721 5.05344,0.98341 -0.37362,1.82882 2.08411,0.57 0.45217,-1.57304 8.33748,2.55644 4.02662,-15.02751 c 0,0 0.0919,0.0471 0.25063,0.11679 0.15871,0.0697 0.38442,0.16169 0.65164,0.25115 0.26723,0.0894 0.5762,0.17637 0.90176,0.23564 0.16278,0.0296 0.32969,0.0524 0.49764,0.0651 0.16795,0.0127 0.337,0.0156 0.50385,0.005 0.3337,-0.0208 0.5996,-0.0556 0.82424,-0.0873 0.22464,-0.0317 0.4076,-0.0606 0.57619,-0.0693 0.0843,-0.004 0.16524,-0.004 0.24546,0.004 0.0802,0.008 0.16011,0.0229 0.24288,0.047 0.0828,0.0241 0.1685,0.0571 0.26045,0.1018 0.0919,0.0447 0.1899,0.10102 0.29766,0.17054 0.10775,0.0695 0.20782,0.14778 0.30179,0.23099 0.094,0.0832 0.18175,0.17113 0.26561,0.2589 0.16772,0.17554 0.31924,0.35137 0.46871,0.49041 0.0747,0.0695 0.14908,0.12951 0.22479,0.17622 0.0757,0.0467 0.15268,0.0798 0.23306,0.0946 0.0804,0.0148 0.16395,0.0113 0.2527,-0.015 0.0888,-0.0263 0.1829,-0.0755 0.2837,-0.15193 0.20162,-0.15295 0.46924,-0.35621 0.76688,-0.56999 0.29764,-0.21378 0.62518,-0.43786 0.94671,-0.63252 0.16077,-0.0973 0.32014,-0.18703 0.47336,-0.26459 0.15322,-0.0776 0.30001,-0.14289 0.43667,-0.19068 0.13665,-0.0478 0.26306,-0.0783 0.37413,-0.0863 0.0555,-0.004 0.10707,-0.003 0.15452,0.005 0.0474,0.008 0.0904,0.022 0.12867,0.0429 0.0765,0.0417 0.14823,0.0923 0.21704,0.14986 0.0688,0.0575 0.13503,0.12173 0.19999,0.19017 0.12992,0.13687 0.25595,0.29062 0.39326,0.44183 0.1373,0.15121 0.28584,0.29989 0.46095,0.42633 0.0876,0.0632 0.18151,0.12084 0.28422,0.17054 0.10271,0.0497 0.21424,0.0917 0.3359,0.12299 0.12166,0.0313 0.22607,0.0713 0.31884,0.11627 0.0928,0.0449 0.17366,0.0943 0.24753,0.14366 0.14773,0.0986 0.26789,0.19703 0.39998,0.25786 0.066,0.0304 0.13474,0.0513 0.21187,0.0584 0.0771,0.007 0.16277,6.1e-4 0.26097,-0.0248 0.0982,-0.0254 0.20921,-0.0697 0.33848,-0.13694 0.12926,-0.0672 0.27667,-0.15725 0.447,-0.27544 0.34065,-0.23637 0.57886,-0.42597 0.76223,-0.58239 0.18336,-0.15642 0.3119,-0.27967 0.43356,-0.38395 0.12166,-0.10429 0.23615,-0.18929 0.39171,-0.26924 0.15555,-0.0799 0.35213,-0.1548 0.63717,-0.23823 0.14252,-0.0417 0.26136,-0.0869 0.36277,-0.13746 0.1014,-0.0506 0.18543,-0.10679 0.25735,-0.17001 0.0719,-0.0632 0.13199,-0.13375 0.18603,-0.21343 0.054,-0.0797 0.10207,-0.16826 0.14986,-0.2682 0.0956,-0.19987 0.19039,-0.44403 0.33073,-0.74775 0.0702,-0.15186 0.15132,-0.31877 0.25012,-0.5023 0.0988,-0.18352 0.21494,-0.38355 0.35398,-0.60255 0.13904,-0.21899 0.2937,-0.45769 0.4656,-0.70796 0.17191,-0.25028 0.36105,-0.51233 0.56896,-0.77825 0.20791,-0.26592 0.43454,-0.53558 0.68161,-0.8015 0.24708,-0.26592 0.51471,-0.52797 0.80409,-0.77825 0.14469,-0.12514 0.29476,-0.24757 0.45062,-0.36587 0.15586,-0.11829 0.3173,-0.2326 0.48472,-0.3421 0.16742,-0.10949 0.34101,-0.2139 0.52038,-0.31264 0.17938,-0.0987 0.36483,-0.19198 0.55656,-0.27802 0.19173,-0.086 0.38981,-0.16531 0.59428,-0.23668 0.20447,-0.0714 0.41543,-0.1349 0.63303,-0.18965 0.21761,-0.0548 0.44169,-0.10025 0.67283,-0.13642 0.23114,-0.0362 0.46911,-0.0629 0.71417,-0.0785 0.98025,-0.0626 1.82662,-0.0902 2.55747,-0.12196 0.36542,-0.0159 0.70191,-0.0326 1.01182,-0.0553 0.30991,-0.0226 0.59318,-0.0513 0.85215,-0.0904 0.0792,-0.0119 0.14131,-0.0329 0.216,-0.047 -1.15359,-0.42536 -1.4149,-1.15807 -1.4149,-1.15807 0,0 0.55049,-2.83187 -0.31471,-2.83187 -0.8652,0 -2.20193,-1.41542 -2.20193,-1.41542 0,0 -4.64108,-3.85445 -4.2478,-6.21409 0.39327,-2.35964 0.15729,-3.53945 0.39325,-5.34851 0.23597,-1.80905 2.43858,-3.30329 3.22513,-5.11235 0.78655,-1.80906 0.31454,-3.85405 1.96629,-6.13502 1.65175,-2.28099 0.39321,-4.40455 4.24729,-5.42706 3.85407,-1.02251 6.13502,-2.123904 6.13502,-2.123904 l 1.41594,-7.3148 5.0338,-6.449739 -0.94362,-3.46077 c 0,0 0.55056,-1.651613 6.13503,-0.865064 5.584475,0.786539 6.371005,0.07856 5.741765,-1.415934 -0.62923,-1.494428 0.47181,-7.393347 0.47181,-7.393347 l -1.573035,-3.539836 c 0,0 -2.28089,0.865616 -2.35954,-2.59519 -0.0787,-3.460797 0.23564,-5.820766 0.23564,-7.393864 v -4.955253 l -2.67425,-3.696932 c 0,0 -2.20196,-0.707572 -1.80868,-2.9099 0.39327,-2.202328 3.30316,-4.955253 3.30316,-4.955253 l -4.32583,-3.539319 -1.75132,3.854028 -0.1111,5.172294 -2.16938,2.113566 -6.45128,-1.390612 -7.17476,-4.226616 -0.27802,-4.227132 c 0,0 1.61308,1.946972 1.83555,1.891358 0.22246,-0.05562 1.72392,-3.559473 1.72392,-3.559473 h 2.44688 l 2.5585,-1.779736 v -5.39502 l -0.49971,-1.865519 -2.65772,-1.534273 h -3.51658 l -2.3642,-4.094841 -5.86734,-2.182812 -3.05873,2.836519 -0.16691,6.284888 -0.94516,4.782653 3.94859,4.950086 -5.00538,13.626042 -12.29175,-1.835031 -1.27899,-2.725415 c 0,0 -5.84006,-1.668454 -9.28833,1.056783 -3.44826,2.725248 -6.95203,6.062163 -6.95203,6.062163 0,0 1.9466,3.392783 1.33481,8.509558 -0.61179,5.116785 0.11124,3.726424 -0.44494,7.007841 -0.55617,3.281407 -1.27899,9.121265 -1.27899,10.567313 0,1.446049 0.11123,1.056717 0,1.779737 -0.11124,0.723029 1.44613,3.003368 -1.16789,3.726387 -2.61399,0.72302 -10.84533,1.612822 -10.84533,1.612822 l -1.446423,-0.166915 -6.451286,4.171318 c 0,0 -1.335066,5.61716 -0.66766,6.340184 0.667408,0.72302 -0.111104,1.22389 -0.111104,2.16938 0,0.94549 0.778437,4.67161 1.278992,5.2834 0.500554,0.61179 2.336341,1.7798 4.282942,1.50172 1.946601,-0.27809 5.617098,0.61178 7.508069,0.88987 1.89099,0.27809 5.89556,3.67083 5.83995,4.78317 -0.0556,1.11234 -1.72432,1.50139 -1.39061,2.00194 0.3337,0.50056 1.94659,4.89466 1.3348,5.89577 -0.61179,1.0011 -0.16656,2.22448 -2.89181,1.72392 -2.72524,-0.50055 -0.66785,1.335 -0.72347,1.83555 -0.0556,0.50056 -1.00077,1.6683 -0.94516,2.16886 0.0556,0.50055 2.39127,4.61644 2.00194,6.00687 -0.38932,1.39042 -0.72281,7.11871 -1.72392,3.78168 -1.00111,-3.33703 1.4e-4,-4.44903 -3.225646,-3.61477 -3.225798,0.83426 -3.114659,2.72496 -4.338236,3.78168 -1.223578,1.05673 -2.28035,3.00362 -2.391585,3.94912 -0.111233,0.94548 1.445768,7.28552 2.446879,9.12089 1.001108,1.83536 2.169054,4.33822 2.22467,5.2281 0.04892,0.78271 0.0165,1.67606 0.0072,1.90893 z" /><g
         aria-label="Comuna 1"
         id="text4131"
         style="font-weight:bold;font-size:8.03314px;font-family:Arial;-inkscape-font-specification:'Arial Bold';text-align:center;letter-spacing:-0.407683px;word-spacing:0.690853px;direction:rtl;text-orientation:upright;text-anchor:middle;fill-opacity:0.980392;fill-rule:evenodd;stroke-width:0.264999;stop-color:#000000"
         transform="translate(-76.731625,-8.340394)"><path
           d="m 110.167,112.43814 1.12574,0.35694 q -0.25888,0.94138 -0.86293,1.40031 -0.60014,0.455 -1.52583,0.455 -1.14535,0 -1.88277,-0.78056 -0.73741,-0.78449 -0.73741,-2.14165 0,-1.43561 0.74133,-2.22794 0.74134,-0.79626 1.94945,-0.79626 1.05514,0 1.71411,0.62367 0.39224,0.36871 0.58836,1.05906 l -1.14927,0.27457 q -0.10199,-0.44716 -0.42755,-0.70604 -0.32164,-0.25888 -0.78448,-0.25888 -0.63936,0 -1.03945,0.45892 -0.39616,0.45893 -0.39616,1.48661 0,1.09043 0.39224,1.55328 0.39224,0.46285 1.01983,0.46285 0.46285,0 0.79626,-0.29419 0.3334,-0.29418 0.47853,-0.92569 z"
           style="stroke-width:0.265"
           id="path9357" /><path
           d="m 111.61855,112.41068 q 0,-0.54914 0.27065,-1.06298 0.27065,-0.51384 0.76487,-0.78448 0.49815,-0.27065 1.11005,-0.27065 0.94531,0 1.54936,0.61582 0.60406,0.6119 0.60406,1.54936 0,0.94531 -0.6119,1.56897 -0.60798,0.61975 -1.53367,0.61975 -0.57268,0 -1.09436,-0.25888 -0.51776,-0.25888 -0.78841,-0.75703 -0.27065,-0.50207 -0.27065,-1.21988 z m 1.12966,0.0588 q 0,0.61974 0.29419,0.94923 0.29418,0.32948 0.72564,0.32948 0.43147,0 0.72173,-0.32948 0.29418,-0.32949 0.29418,-0.95708 0,-0.6119 -0.29418,-0.94138 -0.29026,-0.32948 -0.72173,-0.32948 -0.43146,0 -0.72564,0.32948 -0.29419,0.32948 -0.29419,0.94923 z"
           style="stroke-width:0.265"
           id="path9359" /><path
           d="m 116.29042,110.38671 h 1.01591 v 0.56875 q 0.54522,-0.66289 1.29832,-0.66289 0.40009,0 0.69427,0.16474 0.29419,0.16474 0.48246,0.49815 0.27457,-0.33341 0.59229,-0.49815 0.31772,-0.16474 0.67858,-0.16474 0.45892,0 0.77664,0.18828 0.31772,0.18435 0.47462,0.54521 0.11375,0.26673 0.11375,0.86294 v 2.66333 h -1.10221 v -2.38092 q 0,-0.61974 -0.11375,-0.80017 -0.15297,-0.23535 -0.47069,-0.23535 -0.23142,0 -0.43539,0.14121 -0.20397,0.14121 -0.29418,0.41578 -0.0902,0.27065 -0.0902,0.85901 v 2.00044 h -1.1022 v -2.28286 q 0,-0.60797 -0.0588,-0.78448 -0.0588,-0.17651 -0.18435,-0.2628 -0.1216,-0.0863 -0.33341,-0.0863 -0.25496,0 -0.45892,0.13729 -0.20397,0.13728 -0.29418,0.39616 -0.0863,0.25888 -0.0863,0.85902 v 2.02397 h -1.1022 z"
           style="stroke-width:0.265"
           id="path9361" /><path
           d="m 125.84963,114.55233 v -0.62367 q -0.2275,0.33341 -0.60013,0.52561 -0.36871,0.1922 -0.78056,0.1922 -0.4197,0 -0.75311,-0.18436 -0.33341,-0.18435 -0.48246,-0.51776 -0.14905,-0.3334 -0.14905,-0.92177 v -2.63587 h 1.1022 v 1.91414 q 0,0.87863 0.0588,1.07867 0.0628,0.19612 0.22358,0.3138 0.16082,0.11375 0.40793,0.11375 0.28242,0 0.50599,-0.15298 0.22358,-0.15689 0.30595,-0.3844 0.0824,-0.23142 0.0824,-1.12573 v -1.75725 h 1.1022 v 4.16562 z"
           style="stroke-width:0.265"
           id="path9363" /><path
           d="m 131.3962,114.55233 h -1.1022 v -2.12596 q 0,-0.67466 -0.0706,-0.87078 -0.0706,-0.20004 -0.23142,-0.30987 -0.1569,-0.10983 -0.38047,-0.10983 -0.28634,0 -0.51384,0.1569 -0.2275,0.1569 -0.3138,0.41578 -0.0824,0.25888 -0.0824,0.95707 v 1.88669 h -1.1022 v -4.16562 h 1.02375 v 0.6119 q 0.54522,-0.70604 1.37285,-0.70604 0.36479,0 0.66682,0.13336 0.30202,0.12944 0.455,0.33341 0.1569,0.20396 0.21573,0.46285 0.0628,0.25888 0.0628,0.74134 z"
           style="stroke-width:0.265"
           id="path9365" /><path
           d="m 132.93012,111.65758 -1.00022,-0.18044 q 0.16867,-0.60405 0.58052,-0.89431 0.41186,-0.29026 1.2238,-0.29026 0.73742,0 1.09828,0.17651 0.36087,0.17259 0.506,0.44323 0.14905,0.26673 0.14905,0.98453 l -0.0118,1.28656 q 0,0.54914 0.051,0.81194 0.0549,0.25889 0.20005,0.55699 h -1.09044 q -0.0431,-0.10983 -0.10591,-0.32556 -0.0275,-0.0981 -0.0392,-0.12944 -0.28241,0.27457 -0.60405,0.41185 -0.32164,0.13729 -0.68643,0.13729 -0.64328,0 -1.01591,-0.3491 -0.36871,-0.34909 -0.36871,-0.88255 0,-0.35301 0.16867,-0.62758 0.16866,-0.2785 0.47069,-0.42363 0.30595,-0.14905 0.87862,-0.25888 0.77272,-0.14513 1.07083,-0.27065 v -0.10982 q 0,-0.31772 -0.1569,-0.45108 -0.1569,-0.13729 -0.59229,-0.13729 -0.29418,0 -0.45892,0.11767 -0.16474,0.11376 -0.26673,0.40402 z m 1.47484,0.89431 q -0.21181,0.0706 -0.67074,0.16866 -0.45892,0.0981 -0.60013,0.1922 -0.21573,0.15298 -0.21573,0.38832 0,0.23143 0.17258,0.40009 0.17259,0.16867 0.43931,0.16867 0.29811,0 0.56876,-0.19612 0.20004,-0.14906 0.2628,-0.36479 0.0431,-0.14121 0.0431,-0.53737 z"
           style="stroke-width:0.265"
           id="path9367" /><path
           d="m 141.2663,114.55233 h -1.10221 v -4.15386 q -0.60405,0.56483 -1.42384,0.83548 v -1.00022 q 0.43147,-0.1412 0.93746,-0.53345 0.50599,-0.39616 0.69427,-0.92177 h 0.89432 z"
           style="stroke-width:0.265"
           id="path9369" /></g><g
         aria-label="Comuna 2"
         id="text4131-8"
         style="font-weight:bold;font-size:8.03314px;font-family:Arial;-inkscape-font-specification:'Arial Bold';text-align:center;letter-spacing:-0.407683px;word-spacing:0.690853px;direction:rtl;text-orientation:upright;text-anchor:middle;fill-opacity:0.980392;fill-rule:evenodd;stroke-width:0.264999;stop-color:#000000"
         transform="translate(-76.731625,-8.340394)"><path
           d="m 146.21823,170.02578 1.12574,0.35694 q -0.25888,0.94138 -0.86293,1.40031 -0.60014,0.455 -1.52583,0.455 -1.14535,0 -1.88277,-0.78056 -0.73741,-0.78449 -0.73741,-2.14165 0,-1.43561 0.74134,-2.22794 0.74134,-0.79626 1.94944,-0.79626 1.05514,0 1.71411,0.62367 0.39224,0.36871 0.58836,1.05906 l -1.14927,0.27457 q -0.10198,-0.44716 -0.42755,-0.70604 -0.32163,-0.25888 -0.78448,-0.25888 -0.63936,0 -1.03945,0.45892 -0.39616,0.45893 -0.39616,1.4866 0,1.09044 0.39224,1.55329 0.39224,0.46284 1.01983,0.46284 0.46285,0 0.79626,-0.29418 0.3334,-0.29418 0.47853,-0.92569 z"
           style="stroke-width:0.265"
           id="path9372" /><path
           d="m 147.66978,169.99832 q 0,-0.54914 0.27065,-1.06298 0.27065,-0.51384 0.76488,-0.78448 0.49814,-0.27065 1.11004,-0.27065 0.94531,0 1.54936,0.61582 0.60406,0.6119 0.60406,1.54936 0,0.94531 -0.6119,1.56897 -0.60798,0.61975 -1.53367,0.61975 -0.57268,0 -1.09436,-0.25888 -0.51776,-0.25888 -0.78841,-0.75703 -0.27065,-0.50207 -0.27065,-1.21988 z m 1.12966,0.0588 q 0,0.61974 0.29419,0.94923 0.29418,0.32948 0.72565,0.32948 0.43146,0 0.72172,-0.32948 0.29419,-0.32949 0.29419,-0.95708 0,-0.6119 -0.29419,-0.94138 -0.29026,-0.32949 -0.72172,-0.32949 -0.43147,0 -0.72565,0.32949 -0.29419,0.32948 -0.29419,0.94923 z"
           style="stroke-width:0.265"
           id="path9374" /><path
           d="m 152.34165,167.97435 h 1.01591 v 0.56875 q 0.54522,-0.66289 1.29832,-0.66289 0.40009,0 0.69427,0.16474 0.29419,0.16474 0.48246,0.49815 0.27457,-0.33341 0.59229,-0.49815 0.31772,-0.16474 0.67858,-0.16474 0.45893,0 0.77664,0.18827 0.31772,0.18436 0.47462,0.54522 0.11375,0.26673 0.11375,0.86294 v 2.66333 h -1.10221 v -2.38092 q 0,-0.61974 -0.11375,-0.80017 -0.15297,-0.23535 -0.47069,-0.23535 -0.23142,0 -0.43539,0.14121 -0.20396,0.14121 -0.29418,0.41578 -0.0902,0.27064 -0.0902,0.85901 v 2.00044 h -1.1022 v -2.28286 q 0,-0.60797 -0.0588,-0.78448 -0.0588,-0.17651 -0.18435,-0.26281 -0.1216,-0.0863 -0.33341,-0.0863 -0.25495,0 -0.45892,0.13729 -0.20397,0.13728 -0.29418,0.39616 -0.0863,0.25888 -0.0863,0.85901 v 2.02398 h -1.1022 z"
           style="stroke-width:0.265"
           id="path9376" /><path
           d="m 161.90087,172.13997 v -0.62367 q -0.22751,0.33341 -0.60014,0.52561 -0.36871,0.1922 -0.78056,0.1922 -0.4197,0 -0.75311,-0.18436 -0.3334,-0.18435 -0.48246,-0.51776 -0.14905,-0.3334 -0.14905,-0.92177 v -2.63587 h 1.1022 v 1.91414 q 0,0.87863 0.0588,1.07867 0.0628,0.19612 0.22358,0.3138 0.16082,0.11375 0.40793,0.11375 0.28242,0 0.506,-0.15298 0.22357,-0.1569 0.30595,-0.3844 0.0824,-0.23142 0.0824,-1.12573 v -1.75725 h 1.1022 v 4.16562 z"
           style="stroke-width:0.265"
           id="path9378" /><path
           d="m 167.44743,172.13997 h -1.1022 v -2.12596 q 0,-0.67466 -0.0706,-0.87078 -0.0706,-0.20004 -0.23143,-0.30987 -0.15689,-0.10983 -0.38047,-0.10983 -0.28634,0 -0.51384,0.1569 -0.2275,0.1569 -0.3138,0.41578 -0.0824,0.25888 -0.0824,0.95707 v 1.88669 h -1.1022 v -4.16562 h 1.02375 v 0.6119 q 0.54522,-0.70604 1.37286,-0.70604 0.36478,0 0.66681,0.13336 0.30203,0.12944 0.455,0.33341 0.1569,0.20396 0.21573,0.46284 0.0628,0.25888 0.0628,0.74134 z"
           style="stroke-width:0.265"
           id="path9380" /><path
           d="m 168.98135,169.24521 -1.00022,-0.18043 q 0.16867,-0.60405 0.58052,-0.89431 0.41186,-0.29026 1.2238,-0.29026 0.73742,0 1.09828,0.17651 0.36087,0.17258 0.506,0.44323 0.14905,0.26673 0.14905,0.98453 l -0.0118,1.28656 q 0,0.54914 0.051,0.81194 0.0549,0.25888 0.20005,0.55699 h -1.09044 q -0.0431,-0.10983 -0.1059,-0.32556 -0.0275,-0.0981 -0.0392,-0.12944 -0.28241,0.27457 -0.60405,0.41185 -0.32164,0.13729 -0.68643,0.13729 -0.64328,0 -1.01591,-0.3491 -0.36871,-0.3491 -0.36871,-0.88255 0,-0.35302 0.16867,-0.62759 0.16866,-0.27849 0.47069,-0.42362 0.30595,-0.14905 0.87862,-0.25888 0.77272,-0.14513 1.07083,-0.27065 v -0.10982 q 0,-0.31772 -0.1569,-0.45108 -0.1569,-0.13729 -0.59229,-0.13729 -0.29418,0 -0.45892,0.11767 -0.16474,0.11375 -0.26673,0.40401 z m 1.47484,0.89432 q -0.21181,0.0706 -0.67074,0.16866 -0.45892,0.0981 -0.60013,0.1922 -0.21573,0.15298 -0.21573,0.38832 0,0.23143 0.17258,0.40009 0.17259,0.16867 0.43932,0.16867 0.2981,0 0.56875,-0.19613 0.20004,-0.14905 0.2628,-0.36478 0.0431,-0.14121 0.0431,-0.53738 z"
           style="stroke-width:0.265"
           id="path9382" /><path
           d="m 178.21969,171.11621 v 1.02376 h -3.8636 q 0.0628,-0.58052 0.37655,-1.09828 0.3138,-0.52169 1.23949,-1.3807 0.74526,-0.69427 0.91393,-0.94138 0.2275,-0.34125 0.2275,-0.67466 0,-0.36871 -0.20004,-0.56483 -0.19613,-0.20004 -0.54522,-0.20004 -0.34518,0 -0.54914,0.20788 -0.20397,0.20789 -0.23535,0.69035 l -1.09828,-0.10983 q 0.0981,-0.91 0.61582,-1.30617 0.51776,-0.39616 1.29441,-0.39616 0.85116,0 1.33754,0.45892 0.48639,0.45893 0.48639,1.14143 0,0.38832 -0.14121,0.74134 -0.13729,0.3491 -0.43931,0.7335 -0.20005,0.25495 -0.72173,0.73349 -0.52168,0.47854 -0.66289,0.63543 -0.13729,0.1569 -0.22358,0.30595 z"
           style="stroke-width:0.265"
           id="path9384" /></g><g
         aria-label="Comuna 3"
         id="text4131-8-3"
         style="font-weight:bold;font-size:8.03314px;font-family:Arial;-inkscape-font-specification:'Arial Bold';text-align:center;letter-spacing:-0.407683px;word-spacing:0.690853px;direction:rtl;text-orientation:upright;text-anchor:middle;fill-opacity:0.980392;fill-rule:evenodd;stroke-width:0.264999;stop-color:#000000"
         transform="translate(-76.731625,-8.340394)"><path
           d="m 91.652743,190.16137 1.125738,0.35694 q -0.25888,0.94138 -0.862935,1.40031 -0.600132,0.455 -1.525826,0.455 -1.14535,0 -1.882767,-0.78056 -0.737417,-0.78449 -0.737417,-2.14165 0,-1.43561 0.741339,-2.22794 0.74134,-0.79626 1.949449,-0.79626 1.055134,0 1.714103,0.62367 0.392243,0.36871 0.588364,1.05906 l -1.149272,0.27457 q -0.101983,-0.44716 -0.427545,-0.70604 -0.32164,-0.25888 -0.784487,-0.25888 -0.639356,0 -1.039444,0.45892 -0.396166,0.45893 -0.396166,1.4866 0,1.09044 0.392244,1.55329 0.392243,0.46284 1.019832,0.46284 0.462847,0 0.796253,-0.29418 0.333407,-0.29418 0.478537,-0.92569 z"
           style="stroke-width:0.265"
           id="path9387" /><path
           d="m 93.104293,190.13391 q 0,-0.54914 0.270648,-1.06298 0.270648,-0.51384 0.764874,-0.78448 0.498149,-0.27065 1.110048,-0.27065 0.945306,0 1.549361,0.61582 0.604054,0.6119 0.604054,1.54936 0,0.94531 -0.611899,1.56897 -0.607977,0.61975 -1.533671,0.61975 -0.572675,0 -1.094358,-0.25888 -0.517761,-0.25888 -0.788409,-0.75703 -0.270648,-0.50207 -0.270648,-1.21988 z m 1.12966,0.0588 q 0,0.61974 0.294183,0.94923 0.294182,0.32948 0.72565,0.32948 0.431467,0 0.721727,-0.32948 0.294182,-0.32949 0.294182,-0.95708 0,-0.6119 -0.294182,-0.94138 -0.29026,-0.32949 -0.721727,-0.32949 -0.431468,0 -0.72565,0.32949 -0.294183,0.32948 -0.294183,0.94923 z"
           style="stroke-width:0.265"
           id="path9389" /><path
           d="m 97.776159,188.10994 h 1.01591 v 0.56875 q 0.545218,-0.66289 1.298321,-0.66289 0.40009,0 0.69427,0.16474 0.29419,0.16474 0.48246,0.49815 0.27457,-0.33341 0.59229,-0.49815 0.31772,-0.16474 0.67858,-0.16474 0.45893,0 0.77664,0.18827 0.31772,0.18436 0.47462,0.54522 0.11375,0.26673 0.11375,0.86294 v 2.66333 h -1.10221 v -2.38092 q 0,-0.61974 -0.11375,-0.80017 -0.15297,-0.23535 -0.47069,-0.23535 -0.23142,0 -0.43539,0.14121 -0.20396,0.14121 -0.29418,0.41578 -0.0902,0.27064 -0.0902,0.85901 v 2.00044 h -1.1022 v -2.28286 q 0,-0.60797 -0.0588,-0.78448 -0.0588,-0.17651 -0.18435,-0.26281 -0.121596,-0.0863 -0.333407,-0.0863 -0.254958,0 -0.458925,0.13729 -0.203966,0.13728 -0.294182,0.39616 -0.08629,0.25888 -0.08629,0.85901 v 2.02398 h -1.102203 z"
           style="stroke-width:0.265"
           id="path9391" /><path
           d="m 107.33537,192.27556 v -0.62367 q -0.2275,0.33341 -0.60013,0.52561 -0.36871,0.1922 -0.78056,0.1922 -0.4197,0 -0.75311,-0.18436 -0.33341,-0.18435 -0.48246,-0.51776 -0.14905,-0.33341 -0.14905,-0.92177 v -2.63587 h 1.1022 v 1.91414 q 0,0.87863 0.0588,1.07867 0.0628,0.19612 0.22358,0.3138 0.16082,0.11375 0.40793,0.11375 0.28242,0 0.50599,-0.15298 0.22358,-0.1569 0.30595,-0.3844 0.0824,-0.23142 0.0824,-1.12573 v -1.75725 h 1.1022 v 4.16562 z"
           style="stroke-width:0.265"
           id="path9393" /><path
           d="m 112.88194,192.27556 h -1.1022 v -2.12596 q 0,-0.67466 -0.0706,-0.87078 -0.0706,-0.20004 -0.23143,-0.30987 -0.1569,-0.10983 -0.38047,-0.10983 -0.28634,0 -0.51384,0.1569 -0.2275,0.15689 -0.3138,0.41578 -0.0824,0.25888 -0.0824,0.95707 v 1.88669 h -1.1022 v -4.16562 h 1.02375 v 0.6119 q 0.54522,-0.70604 1.37285,-0.70604 0.36479,0 0.66682,0.13336 0.30203,0.12944 0.455,0.33341 0.1569,0.20396 0.21573,0.46284 0.0628,0.25888 0.0628,0.74134 z"
           style="stroke-width:0.265"
           id="path9395" /><path
           d="m 114.41586,189.3808 -1.00022,-0.18043 q 0.16867,-0.60405 0.58052,-0.89431 0.41186,-0.29026 1.2238,-0.29026 0.73742,0 1.09828,0.17651 0.36087,0.17258 0.506,0.44323 0.14905,0.26673 0.14905,0.98453 l -0.0118,1.28656 q 0,0.54914 0.051,0.81194 0.0549,0.25888 0.20005,0.55699 h -1.09044 q -0.0431,-0.10983 -0.1059,-0.32556 -0.0275,-0.0981 -0.0392,-0.12944 -0.28241,0.27457 -0.60405,0.41185 -0.32164,0.13729 -0.68643,0.13729 -0.64328,0 -1.01591,-0.3491 -0.36871,-0.3491 -0.36871,-0.88255 0,-0.35302 0.16867,-0.62759 0.16866,-0.27849 0.47069,-0.42362 0.30595,-0.14905 0.87862,-0.25888 0.77272,-0.14513 1.07083,-0.27065 v -0.10982 q 0,-0.31772 -0.1569,-0.45108 -0.1569,-0.13729 -0.59229,-0.13729 -0.29418,0 -0.45892,0.11767 -0.16474,0.11375 -0.26673,0.40401 z m 1.47484,0.89432 q -0.21181,0.0706 -0.67074,0.16866 -0.45892,0.0981 -0.60013,0.1922 -0.21573,0.15298 -0.21573,0.38832 0,0.23143 0.17258,0.40009 0.17259,0.16867 0.43932,0.16867 0.2981,0 0.56875,-0.19613 0.20004,-0.14905 0.2628,-0.36478 0.0431,-0.14121 0.0431,-0.53738 z"
           style="stroke-width:0.265"
           id="path9397" /><path
           d="m 119.89258,190.74973 1.0669,-0.12944 q 0.051,0.40794 0.27457,0.62367 0.22358,0.21573 0.5413,0.21573 0.34125,0 0.57268,-0.25888 0.23534,-0.25888 0.23534,-0.69819 0,-0.41578 -0.22358,-0.65897 -0.22358,-0.24319 -0.54522,-0.24319 -0.21181,0 -0.50599,0.0824 l 0.1216,-0.89824 q 0.44715,0.0118 0.6825,-0.19219 0.23535,-0.20789 0.23535,-0.54915 0,-0.29026 -0.17259,-0.46284 -0.17259,-0.17259 -0.45893,-0.17259 -0.28241,0 -0.48246,0.19612 -0.20004,0.19612 -0.24319,0.57268 l -1.01591,-0.17259 q 0.10591,-0.52168 0.31772,-0.83156 0.21573,-0.31379 0.59621,-0.4903 0.3844,-0.18043 0.85901,-0.18043 0.81195,0 1.30225,0.51776 0.40401,0.42362 0.40401,0.95707 0,0.75703 -0.82763,1.20811 0.49422,0.10591 0.78841,0.47462 0.2981,0.36871 0.2981,0.89039 0,0.75703 -0.55306,1.29048 -0.55306,0.53345 -1.37677,0.53345 -0.78057,0 -1.29441,-0.44716 -0.51384,-0.45108 -0.59621,-1.17673 z"
           style="stroke-width:0.265"
           id="path9399" /></g><g
         aria-label="Comuna 4"
         id="text4131-8-3-9"
         style="font-weight:bold;font-size:8.03314px;font-family:Arial;-inkscape-font-specification:'Arial Bold';text-align:center;letter-spacing:-0.407683px;word-spacing:0.690853px;direction:rtl;text-orientation:upright;text-anchor:middle;fill-opacity:0.980392;fill-rule:evenodd;stroke-width:0.264999;stop-color:#000000"
         transform="translate(-76.731625,-8.340394)"><path
           d="m 82.814006,239.55649 1.125738,0.35695 q -0.258881,0.94138 -0.862935,1.4003 -0.600133,0.45501 -1.525826,0.45501 -1.14535,0 -1.882768,-0.78057 -0.737417,-0.78448 -0.737417,-2.14165 0,-1.43561 0.74134,-2.22794 0.741339,-0.79625 1.949448,-0.79625 1.055134,0 1.714103,0.62367 0.392243,0.3687 0.588365,1.05905 l -1.149273,0.27457 q -0.101983,-0.44715 -0.427545,-0.70604 -0.321639,-0.25888 -0.784486,-0.25888 -0.639356,0 -1.039445,0.45893 -0.396165,0.45892 -0.396165,1.4866 0,1.09044 0.392243,1.55328 0.392243,0.46285 1.019832,0.46285 0.462847,0 0.796254,-0.29418 0.333407,-0.29418 0.478537,-0.9257 z"
           style="stroke-width:0.265"
           id="path9402" /><path
           d="m 84.265556,239.52904 q 0,-0.54914 0.270647,-1.06298 0.270648,-0.51384 0.764874,-0.78449 0.498149,-0.27065 1.110049,-0.27065 0.945306,0 1.54936,0.61583 0.604055,0.6119 0.604055,1.54936 0,0.9453 -0.6119,1.56897 -0.607977,0.61974 -1.53367,0.61974 -0.572676,0 -1.094359,-0.25888 -0.517761,-0.25888 -0.788409,-0.75703 -0.270647,-0.50207 -0.270647,-1.21987 z m 1.12966,0.0588 q 0,0.61975 0.294182,0.94923 0.294183,0.32949 0.72565,0.32949 0.431468,0 0.721728,-0.32949 0.294182,-0.32948 0.294182,-0.95707 0,-0.6119 -0.294182,-0.94138 -0.29026,-0.32949 -0.721728,-0.32949 -0.431467,0 -0.72565,0.32949 -0.294182,0.32948 -0.294182,0.94922 z"
           style="stroke-width:0.265"
           id="path9404" /><path
           d="m 88.937422,237.50506 h 1.015909 v 0.56875 q 0.545218,-0.66289 1.298325,-0.66289 0.400088,0 0.694271,0.16475 0.294182,0.16474 0.482459,0.49814 0.27457,-0.3334 0.592287,-0.49814 0.317717,-0.16475 0.678581,-0.16475 0.458924,0 0.776641,0.18828 0.317717,0.18435 0.474614,0.54522 0.113751,0.26672 0.113751,0.86293 v 2.66333 h -1.102203 v -2.38091 q 0,-0.61975 -0.113751,-0.80018 -0.152975,-0.23534 -0.470692,-0.23534 -0.231423,0 -0.43539,0.1412 -0.203966,0.14121 -0.294182,0.41578 -0.09022,0.27065 -0.09022,0.85901 v 2.00044 h -1.102203 v -2.28285 q 0,-0.60798 -0.05884,-0.78449 -0.05884,-0.17651 -0.184354,-0.2628 -0.121595,-0.0863 -0.333407,-0.0863 -0.254958,0 -0.458924,0.13728 -0.203967,0.13729 -0.294183,0.39617 -0.08629,0.25888 -0.08629,0.85901 v 2.02397 h -1.102203 z"
           style="stroke-width:0.265"
           id="path9406" /><path
           d="m 98.496637,241.67068 v -0.62366 q -0.227501,0.3334 -0.600132,0.5256 -0.368709,0.1922 -0.780564,0.1922 -0.4197,0 -0.753107,-0.18435 -0.333407,-0.18436 -0.482459,-0.51776 -0.149052,-0.33341 -0.149052,-0.92177 v -2.63588 h 1.102203 v 1.91415 q 0,0.87862 0.05884,1.07867 0.06276,0.19612 0.223579,0.31379 0.16082,0.11375 0.407933,0.11375 0.282415,0 0.505993,-0.15297 0.223579,-0.1569 0.30595,-0.3844 0.08237,-0.23142 0.08237,-1.12574 v -1.75725 h 1.102204 v 4.16562 z"
           style="stroke-width:0.265"
           id="path9408" /><path
           d="M 104.04321,241.67068 H 102.941 v -2.12595 q 0,-0.67466 -0.0706,-0.87078 -0.0706,-0.20005 -0.23143,-0.30988 -0.15689,-0.10982 -0.38047,-0.10982 -0.28634,0 -0.51384,0.15689 -0.2275,0.1569 -0.31379,0.41578 -0.0824,0.25888 -0.0824,0.95708 v 1.88668 h -1.1022 v -4.16562 h 1.02376 v 0.6119 q 0.54521,-0.70604 1.37285,-0.70604 0.36478,0 0.66681,0.13337 0.30203,0.12944 0.455,0.3334 0.1569,0.20397 0.21574,0.46285 0.0628,0.25888 0.0628,0.74134 z"
           style="stroke-width:0.265"
           id="path9410" /><path
           d="m 105.57713,238.77593 -1.00022,-0.18043 q 0.16866,-0.60406 0.58052,-0.89432 0.41185,-0.29026 1.22379,-0.29026 0.73742,0 1.09829,0.17651 0.36086,0.17259 0.50599,0.44324 0.14905,0.26672 0.14905,0.98453 l -0.0118,1.28656 q 0,0.54914 0.051,0.81194 0.0549,0.25888 0.20004,0.55698 h -1.09044 q -0.0431,-0.10982 -0.1059,-0.32556 -0.0275,-0.0981 -0.0392,-0.12944 -0.28241,0.27457 -0.60405,0.41186 -0.32164,0.13728 -0.68643,0.13728 -0.64328,0 -1.01591,-0.34909 -0.3687,-0.3491 -0.3687,-0.88255 0,-0.35302 0.16866,-0.62759 0.16866,-0.27849 0.47069,-0.42362 0.30595,-0.14905 0.87863,-0.25888 0.77272,-0.14513 1.07082,-0.27065 v -0.10983 q 0,-0.31772 -0.1569,-0.45108 -0.15689,-0.13728 -0.59228,-0.13728 -0.29419,0 -0.45893,0.11767 -0.16474,0.11375 -0.26672,0.40401 z m 1.47483,0.89431 q -0.21181,0.0706 -0.67074,0.16867 -0.45892,0.0981 -0.60013,0.1922 -0.21573,0.15297 -0.21573,0.38832 0,0.23142 0.17259,0.40009 0.17258,0.16866 0.43931,0.16866 0.2981,0 0.56875,-0.19612 0.20004,-0.14905 0.2628,-0.36479 0.0431,-0.1412 0.0431,-0.53737 z"
           style="stroke-width:0.265"
           id="path9412" /><path
           d="m 113.25433,241.67068 v -1.15711 h -2.35346 v -0.96492 l 2.49467,-3.65178 h 0.92569 v 3.64786 h 0.71388 v 0.96884 h -0.71388 v 1.15711 z m 0,-2.12595 v -1.96514 l -1.32186,1.96514 z"
           style="stroke-width:0.265"
           id="path9414" /></g><g
         aria-label="Comuna 5"
         id="text4131-8-3-9-1"
         style="font-weight:bold;font-size:8.03314px;font-family:Arial;-inkscape-font-specification:'Arial Bold';text-align:center;letter-spacing:-0.407683px;word-spacing:0.690853px;direction:rtl;text-orientation:upright;text-anchor:middle;fill-opacity:0.980392;fill-rule:evenodd;stroke-width:0.264999;stop-color:#000000"
         transform="translate(-76.731625,-8.340394)"><path
           d="m 135.58953,241.75884 1.12573,0.35694 q -0.25888,0.94139 -0.86293,1.40031 -0.60013,0.455 -1.52583,0.455 -1.14535,0 -1.88276,-0.78056 -0.73742,-0.78449 -0.73742,-2.14165 0,-1.43561 0.74134,-2.22794 0.74134,-0.79625 1.94945,-0.79625 1.05513,0 1.7141,0.62366 0.39224,0.36871 0.58836,1.05906 l -1.14927,0.27457 q -0.10198,-0.44716 -0.42754,-0.70604 -0.32164,-0.25888 -0.78449,-0.25888 -0.63936,0 -1.03944,0.45893 -0.39617,0.45892 -0.39617,1.4866 0,1.09043 0.39224,1.55328 0.39225,0.46285 1.01984,0.46285 0.46284,0 0.79625,-0.29419 0.33341,-0.29418 0.47854,-0.92569 z"
           style="stroke-width:0.265"
           id="path9417" /><path
           d="m 137.04108,241.73138 q 0,-0.54914 0.27064,-1.06298 0.27065,-0.51383 0.76488,-0.78448 0.49815,-0.27065 1.11005,-0.27065 0.9453,0 1.54936,0.61582 0.60405,0.6119 0.60405,1.54936 0,0.94531 -0.6119,1.56898 -0.60798,0.61974 -1.53367,0.61974 -0.57267,0 -1.09436,-0.25888 -0.51776,-0.25888 -0.78841,-0.75703 -0.27064,-0.50207 -0.27064,-1.21988 z m 1.12966,0.0588 q 0,0.61974 0.29418,0.94923 0.29418,0.32948 0.72565,0.32948 0.43147,0 0.72173,-0.32948 0.29418,-0.32949 0.29418,-0.95707 0,-0.6119 -0.29418,-0.94139 -0.29026,-0.32948 -0.72173,-0.32948 -0.43147,0 -0.72565,0.32948 -0.29418,0.32949 -0.29418,0.94923 z"
           style="stroke-width:0.265"
           id="path9419" /><path
           d="m 141.71294,239.70741 h 1.01591 v 0.56875 q 0.54522,-0.66289 1.29833,-0.66289 0.40008,0 0.69427,0.16474 0.29418,0.16475 0.48246,0.49815 0.27457,-0.3334 0.59228,-0.49815 0.31772,-0.16474 0.67858,-0.16474 0.45893,0 0.77665,0.18828 0.31771,0.18435 0.47461,0.54522 0.11375,0.26672 0.11375,0.86293 v 2.66333 h -1.1022 v -2.38091 q 0,-0.61975 -0.11375,-0.80018 -0.15298,-0.23535 -0.4707,-0.23535 -0.23142,0 -0.43539,0.14121 -0.20396,0.14121 -0.29418,0.41578 -0.0902,0.27065 -0.0902,0.85901 v 2.00044 h -1.10221 v -2.28285 q 0,-0.60798 -0.0588,-0.78449 -0.0588,-0.17651 -0.18436,-0.2628 -0.12159,-0.0863 -0.3334,-0.0863 -0.25496,0 -0.45893,0.13729 -0.20397,0.13728 -0.29418,0.39616 -0.0863,0.25888 -0.0863,0.85902 v 2.02397 h -1.10221 z"
           style="stroke-width:0.265"
           id="path9421" /><path
           d="m 151.27216,243.87303 v -0.62367 q -0.2275,0.33341 -0.60013,0.52561 -0.36871,0.1922 -0.78057,0.1922 -0.4197,0 -0.75311,-0.18435 -0.3334,-0.18436 -0.48245,-0.51777 -0.14906,-0.3334 -0.14906,-0.92177 v -2.63587 h 1.10221 v 1.91415 q 0,0.87862 0.0588,1.07866 0.0628,0.19613 0.22358,0.3138 0.16082,0.11375 0.40793,0.11375 0.28242,0 0.506,-0.15298 0.22358,-0.15689 0.30595,-0.38439 0.0824,-0.23143 0.0824,-1.12574 v -1.75725 h 1.1022 v 4.16562 z"
           style="stroke-width:0.265"
           id="path9423" /><path
           d="m 156.81873,243.87303 h -1.10221 v -2.12596 q 0,-0.67465 -0.0706,-0.87078 -0.0706,-0.20004 -0.23143,-0.30987 -0.15689,-0.10983 -0.38047,-0.10983 -0.28634,0 -0.51384,0.1569 -0.2275,0.1569 -0.31379,0.41578 -0.0824,0.25888 -0.0824,0.95707 v 1.88669 h -1.1022 v -4.16562 h 1.02376 v 0.6119 q 0.54521,-0.70604 1.37285,-0.70604 0.36478,0 0.66681,0.13336 0.30203,0.12944 0.455,0.33341 0.1569,0.20397 0.21574,0.46285 0.0628,0.25888 0.0628,0.74134 z"
           style="stroke-width:0.265"
           id="path9425" /><path
           d="m 158.35265,240.97828 -1.00022,-0.18043 q 0.16866,-0.60406 0.58052,-0.89432 0.41185,-0.29026 1.22379,-0.29026 0.73742,0 1.09829,0.17651 0.36086,0.17259 0.50599,0.44323 0.14905,0.26673 0.14905,0.98454 l -0.0118,1.28655 q 0,0.54914 0.051,0.81195 0.0549,0.25888 0.20004,0.55698 h -1.09044 q -0.0431,-0.10983 -0.1059,-0.32556 -0.0275,-0.0981 -0.0392,-0.12944 -0.28241,0.27457 -0.60405,0.41185 -0.32164,0.13729 -0.68643,0.13729 -0.64327,0 -1.01591,-0.3491 -0.3687,-0.34909 -0.3687,-0.88254 0,-0.35302 0.16866,-0.62759 0.16866,-0.2785 0.47069,-0.42363 0.30595,-0.14905 0.87863,-0.25888 0.77272,-0.14513 1.07082,-0.27064 v -0.10983 q 0,-0.31772 -0.1569,-0.45108 -0.15689,-0.13729 -0.59228,-0.13729 -0.29419,0 -0.45893,0.11768 -0.16474,0.11375 -0.26672,0.40401 z m 1.47483,0.89431 q -0.21181,0.0706 -0.67074,0.16867 -0.45892,0.0981 -0.60013,0.1922 -0.21573,0.15297 -0.21573,0.38832 0,0.23142 0.17259,0.40008 0.17258,0.16867 0.43931,0.16867 0.2981,0 0.56875,-0.19612 0.20004,-0.14906 0.2628,-0.36479 0.0431,-0.14121 0.0431,-0.53737 z"
           style="stroke-width:0.265"
           id="path9427" /><path
           d="m 163.88428,242.39427 1.09828,-0.11375 q 0.0471,0.37264 0.27849,0.59229 0.23143,0.21574 0.53345,0.21574 0.34518,0 0.58445,-0.2785 0.23926,-0.28241 0.23926,-0.84724 0,-0.52953 -0.23926,-0.79233 -0.23535,-0.26673 -0.61583,-0.26673 -0.47461,0 -0.85116,0.4197 l -0.89432,-0.12944 0.56483,-2.99281 h 2.91437 v 1.03159 h -2.07889 l -0.17259,0.97669 q 0.36871,-0.18435 0.75311,-0.18435 0.7335,0 1.24341,0.53345 0.50992,0.53345 0.50992,1.38462 0,0.70996 -0.41186,1.26694 -0.56091,0.76095 -1.5572,0.76095 -0.79626,0 -1.29833,-0.42754 -0.50207,-0.42755 -0.60013,-1.14928 z"
           style="stroke-width:0.265"
           id="path9429" /></g><g
         aria-label="Comuna 6"
         id="text4131-8-3-9-1-1"
         style="font-weight:bold;font-size:8.03314px;font-family:Arial;-inkscape-font-specification:'Arial Bold';text-align:center;letter-spacing:-0.407683px;word-spacing:0.690853px;direction:rtl;text-orientation:upright;text-anchor:middle;fill-opacity:0.980392;fill-rule:evenodd;stroke-width:0.264999;stop-color:#000000"
         transform="translate(-76.731625,-8.340394)"><path
           d="m 190.04796,227.60099 1.12574,0.35694 q -0.25888,0.94138 -0.86294,1.40031 -0.60013,0.455 -1.52582,0.455 -1.14535,0 -1.88277,-0.78056 -0.73742,-0.78449 -0.73742,-2.14165 0,-1.43561 0.74134,-2.22794 0.74134,-0.79626 1.94945,-0.79626 1.05514,0 1.7141,0.62367 0.39225,0.36871 0.58837,1.05906 l -1.14927,0.27457 q -0.10199,-0.44716 -0.42755,-0.70604 -0.32164,-0.25888 -0.78448,-0.25888 -0.63936,0 -1.03945,0.45892 -0.39616,0.45893 -0.39616,1.48661 0,1.09043 0.39224,1.55328 0.39224,0.46285 1.01983,0.46285 0.46285,0 0.79625,-0.29419 0.33341,-0.29418 0.47854,-0.92569 z"
           style="stroke-width:0.265"
           id="path9432" /><path
           d="m 191.49951,227.57353 q 0,-0.54914 0.27065,-1.06298 0.27065,-0.51384 0.76487,-0.78448 0.49815,-0.27065 1.11005,-0.27065 0.94531,0 1.54936,0.61582 0.60406,0.6119 0.60406,1.54936 0,0.94531 -0.6119,1.56897 -0.60798,0.61975 -1.53367,0.61975 -0.57268,0 -1.09436,-0.25888 -0.51776,-0.25888 -0.78841,-0.75703 -0.27065,-0.50207 -0.27065,-1.21988 z m 1.12966,0.0588 q 0,0.61974 0.29418,0.94923 0.29419,0.32948 0.72565,0.32948 0.43147,0 0.72173,-0.32948 0.29418,-0.32949 0.29418,-0.95708 0,-0.6119 -0.29418,-0.94138 -0.29026,-0.32948 -0.72173,-0.32948 -0.43146,0 -0.72565,0.32948 -0.29418,0.32948 -0.29418,0.94923 z"
           style="stroke-width:0.265"
           id="path9434" /><path
           d="m 196.17138,225.54956 h 1.01591 v 0.56875 q 0.54521,-0.66289 1.29832,-0.66289 0.40009,0 0.69427,0.16474 0.29418,0.16474 0.48246,0.49815 0.27457,-0.33341 0.59229,-0.49815 0.31772,-0.16474 0.67858,-0.16474 0.45892,0 0.77664,0.18828 0.31772,0.18435 0.47461,0.54521 0.11376,0.26673 0.11376,0.86294 v 2.66333 h -1.10221 v -2.38092 q 0,-0.61974 -0.11375,-0.80017 -0.15297,-0.23535 -0.47069,-0.23535 -0.23142,0 -0.43539,0.14121 -0.20397,0.14121 -0.29418,0.41578 -0.0902,0.27064 -0.0902,0.85901 v 2.00044 h -1.1022 v -2.28286 q 0,-0.60797 -0.0588,-0.78448 -0.0588,-0.17651 -0.18435,-0.26281 -0.1216,-0.0863 -0.33341,-0.0863 -0.25496,0 -0.45892,0.13729 -0.20397,0.13728 -0.29419,0.39616 -0.0863,0.25888 -0.0863,0.85901 v 2.02398 h -1.1022 z"
           style="stroke-width:0.265"
           id="path9436" /><path
           d="m 205.73059,229.71518 v -0.62367 q -0.2275,0.33341 -0.60013,0.52561 -0.36871,0.1922 -0.78056,0.1922 -0.4197,0 -0.75311,-0.18436 -0.33341,-0.18435 -0.48246,-0.51776 -0.14905,-0.3334 -0.14905,-0.92177 v -2.63587 h 1.1022 v 1.91414 q 0,0.87863 0.0588,1.07867 0.0628,0.19612 0.22358,0.3138 0.16082,0.11375 0.40793,0.11375 0.28241,0 0.50599,-0.15298 0.22358,-0.15689 0.30595,-0.3844 0.0824,-0.23142 0.0824,-1.12573 v -1.75725 h 1.10221 v 4.16562 z"
           style="stroke-width:0.265"
           id="path9438" /><path
           d="m 211.27716,229.71518 h -1.1022 v -2.12596 q 0,-0.67466 -0.0706,-0.87078 -0.0706,-0.20004 -0.23142,-0.30987 -0.1569,-0.10983 -0.38048,-0.10983 -0.28633,0 -0.51383,0.1569 -0.22751,0.1569 -0.3138,0.41578 -0.0824,0.25888 -0.0824,0.95707 v 1.88669 h -1.1022 v -4.16562 h 1.02375 v 0.6119 q 0.54522,-0.70604 1.37285,-0.70604 0.36479,0 0.66682,0.13336 0.30202,0.12944 0.455,0.33341 0.1569,0.20396 0.21573,0.46284 0.0628,0.25889 0.0628,0.74134 z"
           style="stroke-width:0.265"
           id="path9440" /><path
           d="m 212.81108,226.82042 -1.00022,-0.18043 q 0.16867,-0.60405 0.58052,-0.89431 0.41186,-0.29026 1.2238,-0.29026 0.73742,0 1.09828,0.17651 0.36086,0.17259 0.50599,0.44323 0.14906,0.26673 0.14906,0.98453 l -0.0118,1.28656 q 0,0.54914 0.051,0.81194 0.0549,0.25888 0.20005,0.55699 h -1.09044 q -0.0431,-0.10983 -0.10591,-0.32556 -0.0274,-0.0981 -0.0392,-0.12944 -0.28242,0.27457 -0.60406,0.41185 -0.32163,0.13729 -0.68642,0.13729 -0.64328,0 -1.01591,-0.3491 -0.36871,-0.3491 -0.36871,-0.88255 0,-0.35301 0.16867,-0.62758 0.16866,-0.2785 0.47069,-0.42363 0.30595,-0.14905 0.87862,-0.25888 0.77272,-0.14513 1.07083,-0.27065 v -0.10982 q 0,-0.31772 -0.1569,-0.45108 -0.1569,-0.13729 -0.59229,-0.13729 -0.29418,0 -0.45892,0.11767 -0.16475,0.11375 -0.26673,0.40401 z m 1.47484,0.89432 q -0.21182,0.0706 -0.67074,0.16866 -0.45892,0.0981 -0.60013,0.1922 -0.21574,0.15298 -0.21574,0.38832 0,0.23143 0.17259,0.40009 0.17259,0.16867 0.43931,0.16867 0.29811,0 0.56876,-0.19613 0.20004,-0.14905 0.2628,-0.36478 0.0431,-0.14121 0.0431,-0.53737 z"
           style="stroke-width:0.265"
           id="path9442" /><path
           d="m 222.06118,225.37305 -1.0669,0.11767 q -0.0392,-0.32948 -0.20397,-0.48638 -0.16474,-0.1569 -0.42754,-0.1569 -0.3491,0 -0.59229,0.3138 -0.23927,0.31379 -0.30203,1.30617 0.41186,-0.48639 1.02376,-0.48639 0.69035,0 1.18065,0.52561 0.49423,0.52561 0.49423,1.35716 0,0.88255 -0.51776,1.416 -0.51777,0.53345 -1.32971,0.53345 -0.87078,0 -1.43169,-0.67466 -0.5609,-0.67858 -0.5609,-2.22009 0,-1.58074 0.58444,-2.27894 0.58444,-0.69819 1.51798,-0.69819 0.65504,0 1.08259,0.36871 0.43147,0.36478 0.54914,1.06298 z m -2.49859,2.40445 q 0,0.53737 0.24711,0.83155 0.24712,0.29026 0.56483,0.29026 0.30595,0 0.50992,-0.23926 0.20397,-0.23927 0.20397,-0.78449 0,-0.56091 -0.21966,-0.81979 -0.21966,-0.2628 -0.54914,-0.2628 -0.31772,0 -0.53737,0.25103 -0.21966,0.24712 -0.21966,0.7335 z"
           style="stroke-width:0.265"
           id="path9444" /></g><g
         aria-label="COMUNAS DE QUIBD"
         id="text7822"
         style="font-weight:bold;font-size:10.5833px;font-family:Arial;-inkscape-font-specification:'Arial Bold';text-align:center;letter-spacing:-0.537104px;word-spacing:0.910167px;direction:rtl;text-orientation:upright;text-anchor:middle;fill:#b6d7b6;fill-opacity:0.980392;fill-rule:evenodd;stroke-width:0.264999;stop-color:#000000"
         transform="translate(-59.633817,-84.237979)"><path
           d="m 159.74264,117.08436 1.48311,0.47026 q -0.34106,1.24023 -1.13688,1.84484 -0.79064,0.59944 -2.0102,0.59944 -1.50895,0 -2.48046,-1.02835 -0.97152,-1.03353 -0.97152,-2.82153 0,-1.89135 0.97668,-2.93521 0.97669,-1.04903 2.56832,-1.04903 1.39009,0 2.25825,0.82165 0.51676,0.48576 0.77514,1.39526 l -1.51411,0.36174 q -0.13436,-0.58911 -0.56327,-0.93018 -0.42375,-0.34106 -1.03353,-0.34106 -0.84232,0 -1.36942,0.60461 -0.52193,0.60462 -0.52193,1.95853 0,1.4366 0.51676,2.04638 0.51676,0.60978 1.34359,0.60978 0.60978,0 1.04902,-0.38757 0.43925,-0.38757 0.63045,-1.21956 z"
           style="fill:#000000;stroke-width:0.265"
           id="path9447" /><path
           d="m 161.69117,116.12835 q 0,-1.15755 0.34623,-1.94303 0.25838,-0.57877 0.7028,-1.03869 0.44958,-0.45992 0.98185,-0.68213 0.70796,-0.29972 1.63297,-0.29972 1.67431,0 2.67683,1.03869 1.00768,1.0387 1.00768,2.88871 0,1.83451 -0.99735,2.8732 -0.99735,1.03352 -2.66649,1.03352 -1.68982,0 -2.68717,-1.02835 -0.99735,-1.03353 -0.99735,-2.8422 z m 1.57612,-0.0517 q 0,1.28674 0.59428,1.95337 0.59428,0.66145 1.50895,0.66145 0.91467,0 1.49861,-0.65628 0.58911,-0.66146 0.58911,-1.97921 0,-1.30224 -0.57361,-1.94302 -0.56844,-0.64079 -1.51411,-0.64079 -0.94568,0 -1.52445,0.65112 -0.57878,0.64596 -0.57878,1.95336 z"
           style="fill:#000000;stroke-width:0.265"
           id="path9449" /><path
           d="m 169.67548,119.86971 v -7.57574 h 2.28926 l 1.37459,5.16763 1.35908,-5.16763 h 2.29443 v 7.57574 h -1.4211 v -5.96344 l -1.50378,5.96344 h -1.47277 l -1.49861,-5.96344 v 5.96344 z"
           style="fill:#000000;stroke-width:0.265"
           id="path9451" /><path
           d="m 177.96468,112.29397 h 1.52962 v 4.1031 q 0,0.97668 0.0568,1.26607 0.0982,0.46508 0.46508,0.7493 0.37207,0.27905 1.01286,0.27905 0.65112,0 0.98185,-0.26355 0.33072,-0.26871 0.3979,-0.65628 0.0672,-0.38758 0.0672,-1.28674 v -4.19095 h 1.52962 v 3.97907 q 0,1.36426 -0.12402,1.92753 -0.12403,0.56327 -0.45992,0.95084 -0.33073,0.38757 -0.88883,0.62012 -0.55811,0.22737 -1.45727,0.22737 -1.08521,0 -1.64848,-0.24804 -0.5581,-0.25322 -0.88366,-0.65112 -0.32556,-0.40308 -0.42892,-0.84233 -0.14986,-0.65112 -0.14986,-1.92235 z"
           style="fill:#000000;stroke-width:0.265"
           id="path9453" /><path
           d="m 185.09634,119.86971 v -7.57574 h 1.48827 l 3.10058,5.05911 v -5.05911 h 1.4211 v 7.57574 h -1.53479 l -3.05406,-4.94025 v 4.94025 z"
           style="fill:#000000;stroke-width:0.265"
           id="path9455" /><path
           d="m 199.01825,119.86971 h -1.66397 l -0.66146,-1.72082 h -3.02823 l -0.62528,1.72082 h -1.62264 l 2.95072,-7.57574 h 1.61747 z m -2.81635,-2.99722 -1.04386,-2.81119 -1.02319,2.81119 z"
           style="fill:#000000;stroke-width:0.265"
           id="path9457" /><path
           d="m 198.90489,117.40475 1.48828,-0.14469 q 0.13436,0.74931 0.5426,1.10071 0.41341,0.35139 1.11104,0.35139 0.73897,0 1.11104,-0.31005 0.37724,-0.31523 0.37724,-0.73381 0,-0.26871 -0.1602,-0.45475 -0.15503,-0.1912 -0.54777,-0.33073 -0.26871,-0.093 -1.22472,-0.33072 -1.2299,-0.30489 -1.72599,-0.74931 -0.69763,-0.62528 -0.69763,-1.52445 0,-0.57877 0.32556,-1.08003 0.33073,-0.50643 0.94568,-0.76998 0.62011,-0.26355 1.49344,-0.26355 1.42626,0 2.14456,0.62528 0.72347,0.62529 0.75965,1.66915 l -1.52962,0.0672 q -0.0982,-0.58395 -0.42375,-0.83716 -0.32039,-0.25838 -0.96634,-0.25838 -0.66663,0 -1.04386,0.27388 -0.24288,0.1757 -0.24288,0.47026 0,0.26871 0.22737,0.45992 0.28939,0.24288 1.4056,0.50642 1.1162,0.26355 1.64847,0.54777 0.53743,0.27905 0.83716,0.76998 0.30489,0.48576 0.30489,1.20406 0,0.65112 -0.36174,1.21956 -0.36173,0.56844 -1.02319,0.84749 -0.66145,0.27388 -1.64847,0.27388 -1.4366,0 -2.20658,-0.66146 -0.76997,-0.66662 -0.91984,-1.93786 z"
           style="fill:#000000;stroke-width:0.265"
           id="path9459" /><path
           d="m 209.12261,112.29397 h 2.79569 q 0.94568,0 1.44177,0.1447 0.66662,0.19637 1.14204,0.69763 0.47543,0.50125 0.72347,1.22989 0.24805,0.72347 0.24805,1.788 0,0.93534 -0.23255,1.6123 -0.28421,0.82682 -0.81131,1.33841 -0.39791,0.38758 -1.07487,0.60462 -0.50643,0.16019 -1.35392,0.16019 h -2.87837 z m 1.52962,1.28157 v 5.01777 h 1.14205 q 0.64078,0 0.925,-0.0724 0.37207,-0.093 0.61495,-0.31522 0.24805,-0.22221 0.40308,-0.72864 0.15502,-0.51159 0.15502,-1.39009 0,-0.8785 -0.15502,-1.34875 -0.15503,-0.47025 -0.43409,-0.7338 -0.27905,-0.26355 -0.70796,-0.35657 -0.32039,-0.0724 -1.25573,-0.0724 z"
           style="fill:#000000;stroke-width:0.265"
           id="path9461" /><path
           d="m 216.2336,119.86971 v -7.57574 h 5.61721 v 1.28157 h -4.08759 v 1.67948 h 3.80337 v 1.27641 h -3.80337 v 2.06188 h 4.23228 v 1.2764 z"
           style="fill:#000000;stroke-width:0.265"
           id="path9463" /><path
           d="m 232.16672,118.90853 q 0.56327,0.40308 1.22472,0.64079 l -0.56327,1.08003 q -0.34623,-0.10335 -0.67696,-0.28422 -0.0723,-0.0362 -1.01802,-0.67179 -0.74414,0.32556 -1.64847,0.32556 -1.74666,0 -2.73884,-1.02835 -0.98702,-1.02836 -0.98702,-2.88871 0,-1.85518 0.99218,-2.88353 0.99219,-1.03353 2.69234,-1.03353 1.68464,0 2.67166,1.03353 0.98702,1.02835 0.98702,2.88353 0,0.98185 -0.27389,1.72599 -0.2067,0.56844 -0.66145,1.1007 z m -1.2299,-0.86299 q 0.29456,-0.34623 0.43925,-0.83715 0.14986,-0.49093 0.14986,-1.12655 0,-1.31257 -0.57877,-1.95853 -0.57878,-0.65112 -1.51412,-0.65112 -0.93534,0 -1.51928,0.65112 -0.57877,0.65112 -0.57877,1.95853 0,1.32808 0.57877,1.98954 0.58394,0.65629 1.47277,0.65629 0.33073,0 0.62529,-0.10852 -0.46509,-0.30489 -0.94568,-0.47542 l 0.42891,-0.87333 q 0.75448,0.25838 1.44177,0.77514 z"
           style="fill:#000000;stroke-width:0.265"
           id="path9465" /><path
           d="m 233.75351,112.29397 h 1.52961 v 4.1031 q 0,0.97668 0.0568,1.26607 0.0982,0.46508 0.46508,0.7493 0.37207,0.27905 1.01286,0.27905 0.65112,0 0.98185,-0.26355 0.33073,-0.26871 0.3979,-0.65628 0.0672,-0.38758 0.0672,-1.28674 v -4.19095 h 1.52962 v 3.97907 q 0,1.36426 -0.12402,1.92753 -0.12402,0.56327 -0.45992,0.95084 -0.33073,0.38757 -0.88883,0.62012 -0.55811,0.22737 -1.45727,0.22737 -1.0852,0 -1.64848,-0.24804 -0.5581,-0.25322 -0.88366,-0.65112 -0.32556,-0.40308 -0.42891,-0.84233 -0.14986,-0.65112 -0.14986,-1.92235 z"
           style="fill:#000000;stroke-width:0.265"
           id="path9467" /><path
           d="m 240.82315,119.86971 v -7.57574 h 1.52962 v 7.57574 z"
           style="fill:#000000;stroke-width:0.265"
           id="path9469" /><path
           d="m 243.2781,112.29397 h 3.02823 q 0.89917,0 1.33842,0.0775 0.44441,0.0723 0.79064,0.31005 0.3514,0.23771 0.58395,0.63562 0.23254,0.39274 0.23254,0.88367 0,0.53226 -0.28939,0.97668 -0.28422,0.44441 -0.77514,0.66662 0.69246,0.20154 1.06453,0.6873 0.37207,0.48575 0.37207,1.14204 0,0.51676 -0.24288,1.00769 -0.23771,0.48576 -0.65629,0.78031 -0.41341,0.28939 -1.02319,0.35657 -0.3824,0.0413 -1.84484,0.0517 h -2.57865 z m 1.52962,1.2609 v 1.75183 h 1.00252 q 0.894,0 1.11104,-0.0258 0.39274,-0.0465 0.61495,-0.26872 0.22737,-0.22737 0.22737,-0.59427 0,-0.3514 -0.19637,-0.56844 -0.1912,-0.22221 -0.5736,-0.26872 -0.22738,-0.0258 -1.30741,-0.0258 z m 0,3.01273 v 2.02571 h 1.41593 q 0.82682,0 1.04903,-0.0465 0.34106,-0.062 0.55293,-0.29972 0.21704,-0.24288 0.21704,-0.64596 0,-0.34106 -0.16536,-0.57877 -0.16536,-0.23771 -0.48059,-0.34623 -0.31006,-0.10852 -1.35392,-0.10852 z"
           style="fill:#000000;stroke-width:0.265"
           id="path9471" /><path
           d="m 250.37358,112.29397 h 2.79569 q 0.94567,0 1.44176,0.1447 0.66663,0.19637 1.14205,0.69763 0.47542,0.50125 0.72347,1.22989 0.24804,0.72347 0.24804,1.788 0,0.93534 -0.23254,1.6123 -0.28422,0.82682 -0.81132,1.33841 -0.3979,0.38758 -1.07486,0.60462 -0.50643,0.16019 -1.35392,0.16019 h -2.87837 z m 1.52962,1.28157 v 5.01777 h 1.14204 q 0.64079,0 0.92501,-0.0724 0.37207,-0.093 0.61495,-0.31522 0.24804,-0.22221 0.40307,-0.72864 0.15503,-0.51159 0.15503,-1.39009 0,-0.8785 -0.15503,-1.34875 -0.15503,-0.47025 -0.43408,-0.7338 -0.27905,-0.26355 -0.70796,-0.35657 -0.3204,-0.0724 -1.25574,-0.0724 z"
           style="fill:#000000;stroke-width:0.265"
           id="path9473" /><path
           d="m 257.17451,116.12835 q 0,-1.15755 0.34623,-1.94303 0.25838,-0.57877 0.7028,-1.03869 0.44958,-0.45992 0.98185,-0.68213 0.70796,-0.29972 1.63297,-0.29972 1.67431,0 2.67683,1.03869 1.00768,1.0387 1.00768,2.88871 0,1.83451 -0.99735,2.8732 -0.99735,1.03352 -2.66649,1.03352 -1.68982,0 -2.68717,-1.02835 -0.99735,-1.03353 -0.99735,-2.8422 z m 1.57613,-0.0517 q 0,1.28674 0.59427,1.95337 0.59428,0.66145 1.50895,0.66145 0.91467,0 1.49861,-0.65628 0.58911,-0.66146 0.58911,-1.97921 0,-1.30224 -0.57361,-1.94302 -0.56843,-0.64079 -1.51411,-0.64079 -0.94568,0 -1.52445,0.65112 -0.57877,0.64596 -0.57877,1.95336 z m 1.15754,-4.21678 0.71314,-1.54512 h 1.6278 l -1.4211,1.54512 z"
           style="fill:#000000;stroke-width:0.265"
           id="path9475" /></g><g
         aria-label="Ro Atrato"
         transform="matrix(-0.22406858,-0.99299357,0.95826327,-0.21623169,-76.731625,-8.340394)"
         id="text8602"
         style="font-weight:bold;font-size:4.12561px;font-family:Arial;-inkscape-font-specification:'Arial Bold';text-align:center;letter-spacing:-0.209375px;word-spacing:0.354805px;direction:rtl;text-orientation:upright;text-anchor:middle;fill-opacity:0.980392;fill-rule:evenodd;stroke-width:0.264999;stop-color:#000000"
         inkscape:transform-center-x="-0.14059569"
         inkscape:transform-center-y="-0.22453937"><path
           d="m -174.67266,56.144283 0.61844,-2.953195 h 1.23889 q 0.36663,0 0.55599,0.06245 0.18936,0.06043 0.29613,0.229648 0.10878,0.169215 0.10878,0.427065 0,0.360588 -0.23569,0.598294 -0.2357,0.237706 -0.76147,0.308213 0.16116,0.118853 0.24375,0.233677 0.18533,0.259865 0.29814,0.53786 l 0.22562,0.55599 h -0.44117 l -0.21152,-0.549947 q -0.11482,-0.29814 -0.26187,-0.515701 -0.10073,-0.151084 -0.20548,-0.197417 -0.10475,-0.04835 -0.34044,-0.04835 h -0.4593 l -0.27397,1.311412 z m 0.73528,-1.631711 h 0.54592 q 0.37871,0 0.49354,-0.01007 0.2236,-0.02216 0.36663,-0.100723 0.14303,-0.07856 0.22159,-0.211518 0.0786,-0.132954 0.0786,-0.286053 0,-0.128925 -0.0584,-0.223605 -0.0584,-0.09669 -0.15309,-0.13094 -0.0947,-0.03424 -0.32232,-0.03424 h -0.96291 z"
           style="font-style:italic;font-weight:normal;-inkscape-font-specification:'Arial Italic';stroke-width:0.265"
           id="path9478" /><path
           d="m -171.84423,56.144283 0.44721,-2.139354 h 0.36461 l -0.4472,2.139354 z m 0.35051,-2.399219 0.37872,-0.553976 h 0.4593 l -0.53585,0.553976 z"
           style="font-style:italic;font-weight:normal;-inkscape-font-specification:'Arial Italic';stroke-width:0.265"
           id="path9480" /><path
           d="m -170.95774,55.332457 q 0,-0.626497 0.36864,-1.037446 0.30419,-0.338429 0.79773,-0.338429 0.38678,0 0.62247,0.241735 0.2377,0.241735 0.2377,0.652684 0,0.368646 -0.14907,0.68693 -0.14907,0.31627 -0.42505,0.485485 -0.27396,0.169214 -0.57815,0.169214 -0.24979,0 -0.45526,-0.106766 -0.20346,-0.106766 -0.31225,-0.302169 -0.10676,-0.195402 -0.10676,-0.451238 z m 0.36462,-0.03626 q 0,0.302169 0.14504,0.459297 0.14504,0.155113 0.36864,0.155113 0.11684,0 0.23166,-0.04633 0.11483,-0.04835 0.21354,-0.145041 0.0987,-0.09669 0.1672,-0.219576 0.0705,-0.124897 0.11281,-0.267923 0.0624,-0.199431 0.0624,-0.382747 0,-0.290082 -0.14705,-0.449224 -0.14504,-0.161157 -0.36663,-0.161157 -0.17123,0 -0.31224,0.08259 -0.14101,0.08058 -0.25584,0.237706 -0.11281,0.157128 -0.1672,0.366631 -0.0524,0.207489 -0.0524,0.37066 z"
           style="font-style:italic;font-weight:normal;-inkscape-font-specification:'Arial Italic';stroke-width:0.265"
           id="path9482" /><path
           d="m -168.01813,56.144283 1.67401,-2.953195 h 0.46534 l 0.4875,2.953195 h -0.38274 l -0.14303,-0.850101 h -1.19457 l -0.4734,0.850101 z m 1.07572,-1.154284 h 0.97701 l -0.11482,-0.741321 q -0.0665,-0.441166 -0.0826,-0.735277 -0.10073,0.253822 -0.29412,0.602323 z"
           style="font-style:italic;font-weight:normal;-inkscape-font-specification:'Arial Italic';stroke-width:0.265"
           id="path9484" /><path
           d="m -164.40406,55.848158 -0.0604,0.29814 q -0.13094,0.03425 -0.25382,0.03425 -0.21756,0 -0.34649,-0.106767 -0.0967,-0.08058 -0.0967,-0.219576 0,-0.07051 0.0524,-0.324327 l 0.25986,-1.242921 h -0.28807 l 0.0584,-0.282024 h 0.28807 l 0.1108,-0.525774 0.41699,-0.251807 -0.16317,0.777581 h 0.35857 l -0.0604,0.282024 h -0.35656 l -0.24778,1.182487 q -0.0463,0.225619 -0.0463,0.269937 0,0.06446 0.0363,0.09871 0.0383,0.03425 0.12288,0.03425 0.12087,0 0.21555,-0.02417 z"
           style="font-style:italic;font-weight:normal;-inkscape-font-specification:'Arial Italic';stroke-width:0.265"
           id="path9486" /><path
           d="m -164.31933,56.144283 0.44721,-2.139354 h 0.32232 l -0.0907,0.437137 q 0.16519,-0.247778 0.32232,-0.366631 0.15914,-0.118853 0.32433,-0.118853 0.10878,0 0.26792,0.07856 l -0.14907,0.338429 q -0.0947,-0.06849 -0.20749,-0.06849 -0.19137,0 -0.39282,0.213533 -0.20145,0.213532 -0.31627,0.767508 l -0.1813,0.858159 z"
           style="font-style:italic;font-weight:normal;-inkscape-font-specification:'Arial Italic';stroke-width:0.265"
           id="path9488" /><path
           d="m -161.71249,55.878375 q -0.18936,0.163171 -0.36462,0.23972 -0.17526,0.07454 -0.37469,0.07454 -0.29612,0 -0.47742,-0.173243 -0.1813,-0.175258 -0.1813,-0.44721 0,-0.179287 0.0806,-0.31627 0.0826,-0.138997 0.21757,-0.22159 0.13496,-0.08461 0.33037,-0.120868 0.12288,-0.02417 0.46534,-0.03827 0.34447,-0.0141 0.49354,-0.07252 0.0423,-0.14907 0.0423,-0.247778 0,-0.126911 -0.0927,-0.199431 -0.12691,-0.100723 -0.37066,-0.100723 -0.22965,0 -0.37671,0.102737 -0.14504,0.100723 -0.21152,0.288068 l -0.36864,-0.03223 q 0.11281,-0.318284 0.35656,-0.487499 0.24576,-0.169214 0.61844,-0.169214 0.39684,0 0.62851,0.189359 0.17727,0.141012 0.17727,0.366631 0,0.171229 -0.0504,0.396849 l -0.11885,0.531816 q -0.0564,0.253822 -0.0564,0.412964 0,0.100723 0.0443,0.290082 h -0.36865 q -0.0302,-0.104752 -0.0423,-0.265908 z m 0.13497,-0.81787 q -0.0765,0.03022 -0.16519,0.04633 -0.0866,0.01612 -0.29209,0.03425 -0.31829,0.0282 -0.44923,0.07252 -0.13094,0.0423 -0.19741,0.136983 -0.0665,0.09468 -0.0665,0.209503 0,0.153099 0.10475,0.251808 0.10677,0.09871 0.30217,0.09871 0.1813,0 0.3485,-0.09468 0.1672,-0.09669 0.26389,-0.267923 0.0967,-0.171229 0.15109,-0.487499 z"
           style="font-style:italic;font-weight:normal;-inkscape-font-specification:'Arial Italic';stroke-width:0.265"
           id="path9490" /><path
           d="m -160.21763,55.848158 -0.0604,0.29814 q -0.13094,0.03425 -0.25382,0.03425 -0.21756,0 -0.34649,-0.106767 -0.0967,-0.08058 -0.0967,-0.219576 0,-0.07051 0.0524,-0.324327 l 0.25986,-1.242921 h -0.28807 l 0.0584,-0.282024 h 0.28807 l 0.11079,-0.525774 0.417,-0.251807 -0.16317,0.777581 h 0.35857 l -0.0604,0.282024 h -0.35656 l -0.24778,1.182487 q -0.0463,0.225619 -0.0463,0.269937 0,0.06446 0.0363,0.09871 0.0383,0.03425 0.12288,0.03425 0.12087,0 0.21555,-0.02417 z"
           style="font-style:italic;font-weight:normal;-inkscape-font-specification:'Arial Italic';stroke-width:0.265"
           id="path9492" /><path
           d="m -160.06844,55.332457 q 0,-0.626497 0.36865,-1.037446 0.30418,-0.338429 0.79773,-0.338429 0.38677,0 0.62246,0.241735 0.23771,0.241735 0.23771,0.652684 0,0.368646 -0.14907,0.68693 -0.14907,0.31627 -0.42505,0.485485 -0.27397,0.169214 -0.57815,0.169214 -0.24979,0 -0.45527,-0.106766 -0.20346,-0.106766 -0.31224,-0.302169 -0.10677,-0.195402 -0.10677,-0.451238 z m 0.36462,-0.03626 q 0,0.302169 0.14504,0.459297 0.14504,0.155113 0.36865,0.155113 0.11684,0 0.23166,-0.04633 0.11482,-0.04835 0.21353,-0.145041 0.0987,-0.09669 0.1672,-0.219576 0.0705,-0.124897 0.11281,-0.267923 0.0625,-0.199431 0.0625,-0.382747 0,-0.290082 -0.14705,-0.449224 -0.14505,-0.161157 -0.36664,-0.161157 -0.17122,0 -0.31224,0.08259 -0.14101,0.08058 -0.25583,0.237706 -0.11281,0.157128 -0.1672,0.366631 -0.0524,0.207489 -0.0524,0.37066 z"
           style="font-style:italic;font-weight:normal;-inkscape-font-specification:'Arial Italic';stroke-width:0.265"
           id="path9494" /></g><g
         aria-label="Ro Atrato"
         transform="matrix(-0.05535429,-1.0164541,0.98090321,-0.05341825,-76.731625,-8.340394)"
         id="text8602-1"
         style="font-weight:bold;font-size:4.12561px;font-family:Arial;-inkscape-font-specification:'Arial Bold';text-align:center;letter-spacing:-0.209375px;word-spacing:0.354805px;direction:rtl;text-orientation:upright;text-anchor:middle;fill-opacity:0.980392;fill-rule:evenodd;stroke-width:0.264999;stop-color:#000000"
         inkscape:transform-center-x="-0.023573425"
         inkscape:transform-center-y="-0.23134138"><path
           d="m -230.09557,80.408653 0.61844,-2.953195 h 1.23889 q 0.36663,0 0.55599,0.06245 0.18936,0.06043 0.29612,0.229648 0.10878,0.169215 0.10878,0.427065 0,0.360588 -0.23569,0.598294 -0.23569,0.237706 -0.76146,0.308212 0.16115,0.118853 0.24375,0.233678 0.18533,0.259865 0.29814,0.53786 l 0.22562,0.55599 h -0.44117 l -0.21152,-0.549947 q -0.11482,-0.29814 -0.26188,-0.515701 -0.10072,-0.151084 -0.20547,-0.197417 -0.10475,-0.04835 -0.34045,-0.04835 h -0.45929 l -0.27397,1.311412 z m 0.73528,-1.631711 h 0.54591 q 0.37872,0 0.49355,-0.01007 0.2236,-0.02216 0.36663,-0.100723 0.14302,-0.07856 0.22159,-0.211518 0.0786,-0.132954 0.0786,-0.286053 0,-0.128925 -0.0584,-0.223605 -0.0584,-0.09669 -0.1531,-0.13094 -0.0947,-0.03424 -0.32231,-0.03424 h -0.96291 z"
           style="font-style:italic;font-weight:normal;-inkscape-font-specification:'Arial Italic';stroke-width:0.265"
           id="path9497" /><path
           d="m -227.26714,80.408653 0.44721,-2.139354 h 0.36461 l -0.44721,2.139354 z m 0.35051,-2.399219 0.37872,-0.553976 h 0.4593 l -0.53585,0.553976 z"
           style="font-style:italic;font-weight:normal;-inkscape-font-specification:'Arial Italic';stroke-width:0.265"
           id="path9499" /><path
           d="m -226.38065,79.596827 q 0,-0.626497 0.36864,-1.037446 0.30418,-0.338429 0.79773,-0.338429 0.38677,0 0.62246,0.241735 0.23771,0.241735 0.23771,0.652684 0,0.368646 -0.14907,0.68693 -0.14907,0.31627 -0.42505,0.485485 -0.27397,0.169214 -0.57815,0.169214 -0.24979,0 -0.45527,-0.106766 -0.20346,-0.106766 -0.31224,-0.302169 -0.10676,-0.195402 -0.10676,-0.451238 z m 0.36461,-0.03626 q 0,0.302169 0.14504,0.459297 0.14504,0.155113 0.36865,0.155113 0.11684,0 0.23166,-0.04633 0.11483,-0.04835 0.21353,-0.145041 0.0987,-0.09669 0.1672,-0.219576 0.0705,-0.124897 0.11281,-0.267923 0.0625,-0.199432 0.0625,-0.382747 0,-0.290082 -0.14705,-0.449224 -0.14504,-0.161157 -0.36663,-0.161157 -0.17123,0 -0.31225,0.08259 -0.14101,0.08058 -0.25583,0.237706 -0.11281,0.157128 -0.1672,0.366631 -0.0524,0.207489 -0.0524,0.37066 z"
           style="font-style:italic;font-weight:normal;-inkscape-font-specification:'Arial Italic';stroke-width:0.265"
           id="path9501" /><path
           d="m -223.44104,80.408653 1.67401,-2.953195 h 0.46534 l 0.4875,2.953195 h -0.38275 l -0.14302,-0.850101 h -1.19458 l -0.47339,0.850101 z m 1.07572,-1.154284 h 0.97701 l -0.11482,-0.741321 q -0.0665,-0.441166 -0.0826,-0.735277 -0.10072,0.253822 -0.29411,0.602323 z"
           style="font-style:italic;font-weight:normal;-inkscape-font-specification:'Arial Italic';stroke-width:0.265"
           id="path9503" /><path
           d="m -219.82698,80.112528 -0.0604,0.29814 q -0.13094,0.03425 -0.25382,0.03425 -0.21756,0 -0.34649,-0.106767 -0.0967,-0.08058 -0.0967,-0.219576 0,-0.07051 0.0524,-0.324327 l 0.25987,-1.242921 h -0.28807 l 0.0584,-0.282024 h 0.28807 l 0.11079,-0.525774 0.417,-0.251807 -0.16317,0.777581 h 0.35857 l -0.0604,0.282024 h -0.35655 l -0.24778,1.182487 q -0.0463,0.225619 -0.0463,0.269937 0,0.06446 0.0363,0.09871 0.0383,0.03424 0.12288,0.03424 0.12086,0 0.21554,-0.02417 z"
           style="font-style:italic;font-weight:normal;-inkscape-font-specification:'Arial Italic';stroke-width:0.265"
           id="path9505" /><path
           d="m -219.74224,80.408653 0.44721,-2.139354 h 0.32231 l -0.0906,0.437137 q 0.16519,-0.247778 0.32232,-0.366631 0.15914,-0.118853 0.32432,-0.118853 0.10878,0 0.26793,0.07856 l -0.14907,0.338429 q -0.0947,-0.06849 -0.20749,-0.06849 -0.19138,0 -0.39282,0.213533 -0.20145,0.213532 -0.31627,0.767508 l -0.1813,0.858159 z"
           style="font-style:italic;font-weight:normal;-inkscape-font-specification:'Arial Italic';stroke-width:0.265"
           id="path9507" /><path
           d="m -217.1354,80.142745 q -0.18936,0.163171 -0.36462,0.23972 -0.17526,0.07453 -0.37469,0.07453 -0.29612,0 -0.47743,-0.173243 -0.1813,-0.175258 -0.1813,-0.44721 0,-0.179287 0.0806,-0.31627 0.0826,-0.138997 0.21756,-0.22159 0.13497,-0.08461 0.33037,-0.120868 0.12289,-0.02417 0.46534,-0.03827 0.34448,-0.0141 0.49355,-0.07252 0.0423,-0.14907 0.0423,-0.247778 0,-0.126911 -0.0927,-0.199431 -0.12691,-0.100723 -0.37066,-0.100723 -0.22964,0 -0.3767,0.102737 -0.14504,0.100723 -0.21152,0.288068 l -0.36864,-0.03223 q 0.11281,-0.318284 0.35656,-0.487499 0.24576,-0.169214 0.61843,-0.169214 0.39685,0 0.62852,0.189359 0.17727,0.141012 0.17727,0.366631 0,0.171229 -0.0504,0.396849 l -0.11886,0.531816 q -0.0564,0.253822 -0.0564,0.412964 0,0.100723 0.0443,0.290082 h -0.36865 q -0.0302,-0.104752 -0.0423,-0.265908 z m 0.13497,-0.81787 q -0.0765,0.03022 -0.16519,0.04633 -0.0866,0.01612 -0.2921,0.03425 -0.31828,0.0282 -0.44922,0.07252 -0.13094,0.0423 -0.19742,0.136983 -0.0665,0.09468 -0.0665,0.209503 0,0.153099 0.10475,0.251808 0.10676,0.09871 0.30217,0.09871 0.1813,0 0.3485,-0.09468 0.1672,-0.09669 0.26389,-0.267923 0.0967,-0.171229 0.15109,-0.487499 z"
           style="font-style:italic;font-weight:normal;-inkscape-font-specification:'Arial Italic';stroke-width:0.265"
           id="path9509" /><path
           d="m -215.64055,80.112528 -0.0604,0.29814 q -0.13094,0.03425 -0.25382,0.03425 -0.21756,0 -0.34649,-0.106767 -0.0967,-0.08058 -0.0967,-0.219576 0,-0.07051 0.0524,-0.324327 l 0.25987,-1.242921 h -0.28807 l 0.0584,-0.282024 h 0.28807 l 0.11079,-0.525774 0.417,-0.251807 -0.16318,0.777581 h 0.35858 l -0.0604,0.282024 h -0.35656 l -0.24777,1.182487 q -0.0463,0.225619 -0.0463,0.269937 0,0.06446 0.0363,0.09871 0.0383,0.03424 0.12289,0.03424 0.12086,0 0.21554,-0.02417 z"
           style="font-style:italic;font-weight:normal;-inkscape-font-specification:'Arial Italic';stroke-width:0.265"
           id="path9511" /><path
           d="m -215.49135,79.596827 q 0,-0.626497 0.36865,-1.037446 0.30418,-0.338429 0.79772,-0.338429 0.38678,0 0.62247,0.241735 0.23771,0.241735 0.23771,0.652684 0,0.368646 -0.14907,0.68693 -0.14907,0.31627 -0.42505,0.485485 -0.27397,0.169214 -0.57815,0.169214 -0.2498,0 -0.45527,-0.106766 -0.20346,-0.106766 -0.31224,-0.302169 -0.10677,-0.195402 -0.10677,-0.451238 z m 0.36462,-0.03626 q 0,0.302169 0.14504,0.459297 0.14504,0.155113 0.36865,0.155113 0.11683,0 0.23166,-0.04633 0.11482,-0.04835 0.21353,-0.145041 0.0987,-0.09669 0.1672,-0.219576 0.0705,-0.124897 0.11281,-0.267923 0.0625,-0.199432 0.0625,-0.382747 0,-0.290082 -0.14706,-0.449224 -0.14504,-0.161157 -0.36663,-0.161157 -0.17123,0 -0.31224,0.08259 -0.14101,0.08058 -0.25584,0.237706 -0.11281,0.157128 -0.1672,0.366631 -0.0524,0.207489 -0.0524,0.37066 z"
           style="font-style:italic;font-weight:normal;-inkscape-font-specification:'Arial Italic';stroke-width:0.265"
           id="path9513" /></g></g></g></svg>
